<svg width="24" height="24" viewBox="0 0 24 24" fill="none" xmlns="http://www.w3.org/2000/svg">
<path fill-rule="evenodd" clip-rule="evenodd" d="M19.0826 4.87536C17.2026 2.99426 14.7025 1.9572 12.039 1.95605C6.54872 1.95605 2.08182 6.42068 2.08067 11.9087C2.07839 13.655 2.53639 15.3716 3.40898 16.885L1.99615 22.0429L7.27512 20.6586C8.73592 21.4535 10.3715 21.8704 12.0344 21.8704H12.039C17.527 21.8704 21.9939 17.4046 21.9962 11.9167C21.9973 9.25775 20.9625 6.75761 19.0826 4.87536Z" stroke="#F3F4F6" stroke-width="1.5" stroke-linecap="round" stroke-linejoin="round"/>
<path d="M13.2483 13.7818L13.712 13.3215C14.138 12.8989 14.8119 12.8453 15.303 13.1902C15.7781 13.5237 16.2076 13.8229 16.6073 14.1016C17.2424 14.5425 17.3189 15.4471 16.7718 15.993L16.3618 16.403" stroke="#F3F4F6" stroke-width="1.5" stroke-linecap="round" stroke-linejoin="round"/>
<path d="M7.59558 7.63592L8.00561 7.22589C8.55155 6.67995 9.45613 6.75647 9.89699 7.39036C10.1745 7.79011 10.4738 8.21955 10.8084 8.69468C11.1533 9.1858 11.1008 9.85967 10.6771 10.2857L10.2168 10.7494" stroke="#F3F4F6" stroke-width="1.5" stroke-linecap="round" stroke-linejoin="round"/>
<path d="M16.364 16.403C14.6725 18.0865 11.8297 16.6566 9.58539 14.4111" stroke="#F3F4F6" stroke-width="1.5" stroke-linecap="round" stroke-linejoin="round"/>
<path d="M9.58694 14.4143C7.34264 12.1689 5.91268 9.32725 7.59619 7.63574" stroke="#F3F4F6" stroke-width="1.5" stroke-linecap="round" stroke-linejoin="round"/>
<path d="M10.2189 10.7493C10.5833 11.3238 11.0504 11.8925 11.5781 12.4202L11.5804 12.4225C12.108 12.9502 12.6768 13.4173 13.2513 13.7816" stroke="#F3F4F6" stroke-width="1.5" stroke-linecap="round" stroke-linejoin="round"/>
</svg>
