<svg width="21" height="18" viewBox="0 0 21 18" fill="none" xmlns="http://www.w3.org/2000/svg">
<path fill-rule="evenodd" clip-rule="evenodd" d="M11.1758 2.9742L10.6668 3.49112L10.1576 2.97412C9.22931 2.03106 7.96139 1.5 6.6381 1.5C5.31482 1.5 4.04689 2.03106 3.1186 2.97412V2.97412C1.18284 4.96337 1.18284 8.13224 3.1186 10.1215L8.51125 15.5971C9.07979 16.1747 9.85634 16.5 10.6668 16.5C11.4773 16.5 12.2538 16.1747 12.8223 15.5971L18.215 10.1216C20.1507 8.13234 20.1507 4.96347 18.215 2.97421V2.97421C17.2867 2.03112 16.0187 1.50003 14.6954 1.50003C13.3721 1.50003 12.1041 2.03111 11.1758 2.9742Z" stroke="#F3F4F6" stroke-width="1.5" stroke-linecap="round" stroke-linejoin="round"/>
</svg>
