<svg width="135" height="40" viewBox="0 0 135 40" fill="none" xmlns="http://www.w3.org/2000/svg">
<rect x="0.5" width="134" height="40" rx="8" fill="#10B981"/>
<path d="M33.2842 14.8145V25H31.7529V16.127H26.9609V25H25.4297V14.8145H33.2842ZM38.1377 25.1572C37.4222 25.1572 36.7956 24.9932 36.2578 24.665C35.7246 24.3369 35.3099 23.8766 35.0137 23.2842C34.722 22.6917 34.5762 22.0036 34.5762 21.2197C34.5762 20.4268 34.722 19.734 35.0137 19.1416C35.3099 18.5446 35.7246 18.082 36.2578 17.7539C36.7956 17.4258 37.4222 17.2617 38.1377 17.2617C38.8577 17.2617 39.4844 17.4258 40.0176 17.7539C40.5508 18.082 40.9655 18.5446 41.2617 19.1416C41.5579 19.734 41.7061 20.4268 41.7061 21.2197C41.7061 22.0036 41.5579 22.6917 41.2617 23.2842C40.9655 23.8766 40.5508 24.3369 40.0176 24.665C39.4844 24.9932 38.8577 25.1572 38.1377 25.1572ZM38.1377 23.9062C38.6071 23.9062 38.9945 23.7832 39.2998 23.5371C39.6051 23.291 39.8307 22.9652 39.9766 22.5596C40.127 22.1494 40.2021 21.7028 40.2021 21.2197C40.2021 20.7275 40.127 20.2764 39.9766 19.8662C39.8307 19.4561 39.6051 19.1279 39.2998 18.8818C38.9945 18.6357 38.6071 18.5127 38.1377 18.5127C37.6729 18.5127 37.2878 18.6357 36.9824 18.8818C36.6816 19.1279 36.4561 19.4561 36.3057 19.8662C36.1553 20.2764 36.0801 20.7275 36.0801 21.2197C36.0801 21.7028 36.1553 22.1494 36.3057 22.5596C36.4561 22.9652 36.6816 23.291 36.9824 23.5371C37.2878 23.7832 37.6729 23.9062 38.1377 23.9062ZM42.7793 25V17.3574H44.2559V20.5635H44.9736L47.4961 17.3574H49.3281L46.3818 21.083L49.3691 25H47.5234L45.2197 21.9443H44.2559V25H42.7793ZM52.1445 25.1641C51.6615 25.1641 51.224 25.0752 50.832 24.8975C50.4401 24.7152 50.1302 24.4508 49.9023 24.1045C49.6745 23.7581 49.5605 23.3366 49.5605 22.8398C49.5605 22.4069 49.6426 22.0537 49.8066 21.7803C49.9753 21.5023 50.2008 21.2812 50.4834 21.1172C50.766 20.9531 51.0804 20.8301 51.4268 20.748C51.7731 20.666 52.1286 20.6022 52.4932 20.5566C52.9535 20.5065 53.3249 20.4632 53.6074 20.4268C53.89 20.3903 54.0951 20.3333 54.2227 20.2559C54.3548 20.1738 54.4209 20.0439 54.4209 19.8662V19.832C54.4209 19.3991 54.2979 19.0641 54.0518 18.8271C53.8102 18.5902 53.4502 18.4717 52.9717 18.4717C52.4749 18.4717 52.0807 18.5811 51.7891 18.7998C51.502 19.014 51.3037 19.2578 51.1943 19.5312L49.793 19.21C49.9616 18.7451 50.2054 18.3714 50.5244 18.0889C50.848 17.8018 51.2171 17.5921 51.6318 17.46C52.0511 17.3278 52.4886 17.2617 52.9443 17.2617C53.2497 17.2617 53.5732 17.2982 53.915 17.3711C54.2568 17.4395 54.5781 17.5693 54.8789 17.7607C55.1842 17.9476 55.4326 18.2165 55.624 18.5674C55.8154 18.9183 55.9111 19.3717 55.9111 19.9277V25H54.4551V23.9541H54.4004C54.3092 24.141 54.1657 24.3278 53.9697 24.5146C53.7783 24.7015 53.5322 24.8564 53.2314 24.9795C52.9307 25.1025 52.5684 25.1641 52.1445 25.1641ZM52.4658 23.9746C52.8805 23.9746 53.2337 23.8949 53.5254 23.7354C53.8171 23.5713 54.0404 23.3571 54.1953 23.0928C54.3503 22.8285 54.4277 22.5482 54.4277 22.252V21.2607C54.373 21.3109 54.2705 21.3587 54.1201 21.4043C53.9697 21.4499 53.7988 21.4886 53.6074 21.5205C53.416 21.5524 53.2292 21.582 53.0469 21.6094C52.8646 21.6322 52.7119 21.6504 52.5889 21.6641C52.3018 21.7051 52.0397 21.7689 51.8027 21.8555C51.5658 21.9375 51.3743 22.0605 51.2285 22.2246C51.0872 22.3841 51.0166 22.596 51.0166 22.8604C51.0166 23.2295 51.1533 23.5075 51.4268 23.6943C51.7002 23.8812 52.0465 23.9746 52.4658 23.9746ZM57.1826 22.9766H58.6934C58.7207 23.291 58.8643 23.5326 59.124 23.7012C59.3883 23.8698 59.7324 23.9564 60.1562 23.9609C60.5801 23.9564 60.9424 23.863 61.2432 23.6807C61.5439 23.4984 61.6966 23.209 61.7012 22.8125C61.7012 22.5846 61.6419 22.3841 61.5234 22.2109C61.4095 22.0378 61.2477 21.9033 61.0381 21.8076C60.833 21.7074 60.5915 21.6595 60.3135 21.6641H59.0693V20.4951H60.3135C60.7282 20.4951 61.0404 20.4017 61.25 20.2148C61.4596 20.0234 61.5645 19.7819 61.5645 19.4902C61.5645 19.1758 61.4528 18.9229 61.2295 18.7314C61.0062 18.54 60.694 18.4466 60.293 18.4512C59.8965 18.4466 59.5638 18.5355 59.2949 18.7178C59.026 18.8955 58.8848 19.1257 58.8711 19.4082H57.3672C57.3763 18.9844 57.5039 18.6107 57.75 18.2871C58.0007 17.9635 58.3402 17.7129 58.7686 17.5352C59.1969 17.3529 59.6823 17.2617 60.2246 17.2617C60.7897 17.2617 61.2796 17.3529 61.6943 17.5352C62.109 17.7174 62.4303 17.9704 62.6582 18.2939C62.8861 18.613 62.9977 18.9821 62.9932 19.4014C62.9977 19.8206 62.8724 20.1647 62.6172 20.4336C62.3665 20.7025 62.0407 20.8939 61.6396 21.0078V21.083C61.9359 21.1058 62.1979 21.1969 62.4258 21.3564C62.6582 21.5114 62.8382 21.721 62.9658 21.9854C63.098 22.2451 63.1641 22.5413 63.1641 22.874C63.1641 23.3389 63.0342 23.7422 62.7744 24.084C62.5192 24.4258 62.166 24.6901 61.7148 24.877C61.2637 25.0592 60.7464 25.1527 60.1631 25.1572C59.598 25.1527 59.0921 25.0615 58.6455 24.8838C58.2035 24.7061 57.8525 24.4554 57.5928 24.1318C57.333 23.8037 57.1963 23.4186 57.1826 22.9766ZM66.0352 25.1641C65.5521 25.1641 65.1146 25.0752 64.7227 24.8975C64.3307 24.7152 64.0208 24.4508 63.793 24.1045C63.5651 23.7581 63.4512 23.3366 63.4512 22.8398C63.4512 22.4069 63.5332 22.0537 63.6973 21.7803C63.8659 21.5023 64.0915 21.2812 64.374 21.1172C64.6566 20.9531 64.971 20.8301 65.3174 20.748C65.6637 20.666 66.0192 20.6022 66.3838 20.5566C66.8441 20.5065 67.2155 20.4632 67.498 20.4268C67.7806 20.3903 67.9857 20.3333 68.1133 20.2559C68.2454 20.1738 68.3115 20.0439 68.3115 19.8662V19.832C68.3115 19.3991 68.1885 19.0641 67.9424 18.8271C67.7008 18.5902 67.3408 18.4717 66.8623 18.4717C66.3656 18.4717 65.9714 18.5811 65.6797 18.7998C65.3926 19.014 65.1943 19.2578 65.085 19.5312L63.6836 19.21C63.8522 18.7451 64.096 18.3714 64.415 18.0889C64.7386 17.8018 65.1077 17.5921 65.5225 17.46C65.9417 17.3278 66.3792 17.2617 66.835 17.2617C67.1403 17.2617 67.4639 17.2982 67.8057 17.3711C68.1475 17.4395 68.4688 17.5693 68.7695 17.7607C69.0749 17.9476 69.3232 18.2165 69.5146 18.5674C69.7061 18.9183 69.8018 19.3717 69.8018 19.9277V25H68.3457V23.9541H68.291C68.1999 24.141 68.0563 24.3278 67.8604 24.5146C67.6689 24.7015 67.4229 24.8564 67.1221 24.9795C66.8213 25.1025 66.459 25.1641 66.0352 25.1641ZM66.3564 23.9746C66.7712 23.9746 67.1243 23.8949 67.416 23.7354C67.7077 23.5713 67.931 23.3571 68.0859 23.0928C68.2409 22.8285 68.3184 22.5482 68.3184 22.252V21.2607C68.2637 21.3109 68.1611 21.3587 68.0107 21.4043C67.8604 21.4499 67.6895 21.4886 67.498 21.5205C67.3066 21.5524 67.1198 21.582 66.9375 21.6094C66.7552 21.6322 66.6025 21.6504 66.4795 21.6641C66.1924 21.7051 65.9303 21.7689 65.6934 21.8555C65.4564 21.9375 65.265 22.0605 65.1191 22.2246C64.9779 22.3841 64.9072 22.596 64.9072 22.8604C64.9072 23.2295 65.0439 23.5075 65.3174 23.6943C65.5908 23.8812 65.9372 23.9746 66.3564 23.9746ZM70.2803 18.6426V17.3574H76.7129V18.6426H74.2314V25H72.7754V18.6426H70.2803ZM78.8252 19.9961H81.0469C81.9766 19.9915 82.6921 20.2217 83.1934 20.6865C83.6992 21.1514 83.9544 21.7507 83.959 22.4844C83.959 22.9629 83.8451 23.3913 83.6172 23.7695C83.3893 24.1478 83.0589 24.4486 82.626 24.6719C82.193 24.8906 81.6667 25 81.0469 25H77.7109V17.3574H79.1533V23.7148H81.0469C81.4707 23.7148 81.8193 23.6055 82.0928 23.3867C82.3662 23.1634 82.5052 22.8763 82.5098 22.5254C82.5052 22.1562 82.3662 21.8555 82.0928 21.623C81.8193 21.3906 81.4707 21.2767 81.0469 21.2812H78.8252V19.9961ZM88.1426 25V17.3574H91.3008C92.1621 17.362 92.8457 17.5488 93.3516 17.918C93.8574 18.2826 94.1081 18.7793 94.1035 19.4082C94.1081 19.8548 93.9668 20.208 93.6797 20.4678C93.3926 20.723 93.0166 20.8984 92.5518 20.9941C92.889 21.0306 93.1989 21.1309 93.4814 21.2949C93.7686 21.459 93.9987 21.68 94.1719 21.958C94.3496 22.2314 94.4385 22.5573 94.4385 22.9355C94.4385 23.3411 94.3314 23.7012 94.1172 24.0156C93.9076 24.3255 93.6068 24.5671 93.2148 24.7402C92.8229 24.9134 92.3467 25 91.7861 25H88.1426ZM89.5371 23.749H91.7861C92.1507 23.7536 92.4378 23.6693 92.6475 23.4961C92.8571 23.3184 92.9596 23.0791 92.9551 22.7783C92.9596 22.4229 92.8571 22.1449 92.6475 21.9443C92.4378 21.7393 92.1507 21.6367 91.7861 21.6367H89.5371V23.749ZM89.5371 20.5498H91.3145C91.7337 20.5452 92.0618 20.4564 92.2988 20.2832C92.5404 20.1055 92.6589 19.8662 92.6543 19.5654C92.6589 19.2692 92.5404 19.0391 92.2988 18.875C92.0573 18.7064 91.7246 18.6221 91.3008 18.6221H89.5371V20.5498ZM98.6904 25.1572C97.9567 25.1572 97.3232 24.9886 96.79 24.6514C96.2568 24.3141 95.8467 23.8493 95.5596 23.2568C95.2725 22.6644 95.1289 21.9854 95.1289 21.2197C95.1289 20.4404 95.2747 19.7546 95.5664 19.1621C95.8626 18.5651 96.2751 18.1003 96.8037 17.7676C97.3369 17.4303 97.9613 17.2617 98.6768 17.2617C99.2601 17.2617 99.7773 17.3688 100.229 17.583C100.684 17.7926 101.051 18.0911 101.329 18.4785C101.612 18.8659 101.778 19.3171 101.828 19.832H100.379C100.329 19.5905 100.231 19.3695 100.085 19.1689C99.9437 18.9684 99.7568 18.8089 99.5244 18.6904C99.292 18.5719 99.0163 18.5127 98.6973 18.5127C98.2826 18.5127 97.9202 18.6221 97.6104 18.8408C97.305 19.055 97.0658 19.3626 96.8926 19.7637C96.7194 20.1647 96.6328 20.6387 96.6328 21.1855C96.6328 21.737 96.7171 22.2178 96.8857 22.6279C97.0544 23.0381 97.2936 23.3548 97.6035 23.5781C97.918 23.7969 98.2826 23.9062 98.6973 23.9062C99.1257 23.9062 99.4902 23.7878 99.791 23.5508C100.096 23.3138 100.292 22.9902 100.379 22.5801H101.828C101.778 23.0768 101.618 23.5189 101.35 23.9062C101.081 24.2936 100.721 24.599 100.27 24.8223C99.8184 25.0456 99.292 25.1572 98.6904 25.1572ZM106.169 25.1572C105.422 25.1572 104.774 24.9954 104.228 24.6719C103.681 24.3483 103.259 23.8926 102.963 23.3047C102.671 22.7122 102.525 22.0218 102.525 21.2334C102.525 20.4495 102.669 19.7591 102.956 19.1621C103.248 18.5651 103.656 18.1003 104.18 17.7676C104.708 17.4303 105.328 17.2617 106.039 17.2617C106.472 17.2617 106.891 17.3324 107.297 17.4736C107.702 17.6149 108.067 17.8382 108.391 18.1436C108.714 18.4489 108.969 18.8454 109.156 19.333C109.348 19.8206 109.443 20.4085 109.443 21.0967V21.6299H103.366V20.5156H108.678L107.987 20.8848C107.987 20.4154 107.914 20.0007 107.769 19.6406C107.623 19.2806 107.404 19.0003 107.112 18.7998C106.825 18.5947 106.467 18.4922 106.039 18.4922C105.611 18.4922 105.244 18.5947 104.938 18.7998C104.638 19.0049 104.408 19.276 104.248 19.6133C104.089 19.9505 104.009 20.3197 104.009 20.7207V21.4795C104.009 22.0036 104.1 22.4479 104.282 22.8125C104.465 23.1771 104.717 23.4551 105.041 23.6465C105.369 23.8379 105.75 23.9336 106.183 23.9336C106.465 23.9336 106.72 23.8926 106.948 23.8105C107.181 23.7285 107.381 23.6055 107.55 23.4414C107.718 23.2773 107.846 23.0745 107.933 22.833L109.341 23.0996C109.227 23.5098 109.026 23.8698 108.739 24.1797C108.452 24.4896 108.09 24.7311 107.652 24.9043C107.219 25.0729 106.725 25.1572 106.169 25.1572Z" fill="white"/>
</svg>
