<svg width="111" height="30" viewBox="0 0 111 30" fill="none" xmlns="http://www.w3.org/2000/svg">
<rect y="0.75" width="111" height="28.9" rx="8" fill="#10B981"/>
<path d="M20.3477 19.3171C19.5977 19.3171 18.9258 19.1375 18.332 18.7781C17.7383 18.4187 17.2715 17.905 16.9316 17.2371C16.5918 16.5652 16.4219 15.7664 16.4219 14.8406C16.4219 13.907 16.5918 13.1062 16.9316 12.4382C17.2754 11.7664 17.7422 11.2507 18.332 10.8914C18.9258 10.532 19.5977 10.3523 20.3477 10.3523C20.8086 10.3523 21.2402 10.4187 21.6426 10.5515C22.0488 10.6843 22.4121 10.8777 22.7324 11.1316C23.0527 11.3855 23.3164 11.696 23.5234 12.0632C23.7344 12.4304 23.875 12.8464 23.9453 13.3113H22.6211C22.5703 13.0261 22.4746 12.7761 22.334 12.5613C22.1973 12.3425 22.0273 12.1589 21.8242 12.0105C21.625 11.8582 21.4004 11.7449 21.1504 11.6707C20.9043 11.5925 20.6426 11.5535 20.3652 11.5535C19.8652 11.5535 19.4141 11.6804 19.0117 11.9343C18.6133 12.1843 18.2988 12.5554 18.0684 13.0476C17.8418 13.5359 17.7285 14.1335 17.7285 14.8406C17.7285 15.5515 17.8438 16.1511 18.0742 16.6394C18.3047 17.1238 18.6191 17.491 19.0176 17.741C19.416 17.991 19.8633 18.116 20.3594 18.116C20.6367 18.116 20.8984 18.0789 21.1445 18.0046C21.3906 17.9304 21.6152 17.8191 21.8184 17.6707C22.0215 17.5222 22.1914 17.3425 22.3281 17.1316C22.4688 16.9167 22.5664 16.6687 22.6211 16.3875H23.9453C23.8789 16.821 23.7441 17.2175 23.541 17.5769C23.3379 17.9324 23.0781 18.241 22.7617 18.5027C22.4453 18.7605 22.084 18.9617 21.6777 19.1062C21.2715 19.2468 20.8281 19.3171 20.3477 19.3171ZM24.5605 13.7507V12.6492H30.0742V13.7507H27.9473V19.2H26.6992V13.7507H24.5605ZM32.5234 19.3406C32.1094 19.3406 31.7344 19.2644 31.3984 19.1121C31.0625 18.9558 30.7969 18.7292 30.6016 18.4324C30.4062 18.1355 30.3086 17.7742 30.3086 17.3484C30.3086 16.9773 30.3789 16.6746 30.5195 16.4402C30.6641 16.2019 30.8574 16.0125 31.0996 15.8718C31.3418 15.7312 31.6113 15.6257 31.9082 15.5554C32.2051 15.4851 32.5098 15.4304 32.8223 15.3914C33.2168 15.3484 33.5352 15.3113 33.7773 15.28C34.0195 15.2488 34.1953 15.2 34.3047 15.1335C34.418 15.0632 34.4746 14.9519 34.4746 14.7996V14.7703C34.4746 14.3992 34.3691 14.1121 34.1582 13.9089C33.9512 13.7058 33.6426 13.6042 33.2324 13.6042C32.8066 13.6042 32.4688 13.698 32.2188 13.8855C31.9727 14.0691 31.8027 14.2781 31.709 14.5125L30.5078 14.2371C30.6523 13.8386 30.8613 13.5183 31.1348 13.2761C31.4121 13.03 31.7285 12.8503 32.084 12.7371C32.4434 12.6238 32.8184 12.5671 33.209 12.5671C33.4707 12.5671 33.748 12.5984 34.041 12.6609C34.334 12.7195 34.6094 12.8308 34.8672 12.9949C35.1289 13.155 35.3418 13.3855 35.5059 13.6863C35.6699 13.9871 35.752 14.3757 35.752 14.8523V19.2H34.5039V18.3035H34.457C34.3789 18.4636 34.2559 18.6238 34.0879 18.7839C33.9238 18.9441 33.7129 19.0769 33.4551 19.1824C33.1973 19.2878 32.8867 19.3406 32.5234 19.3406ZM32.7988 18.321C33.1543 18.321 33.457 18.2527 33.707 18.116C33.957 17.9753 34.1484 17.7917 34.2812 17.5652C34.4141 17.3386 34.4805 17.0984 34.4805 16.8445V15.9949C34.4336 16.0378 34.3457 16.0789 34.2168 16.1179C34.0879 16.157 33.9414 16.1902 33.7773 16.2175C33.6133 16.2449 33.4531 16.2703 33.2969 16.2937C33.1406 16.3132 33.0098 16.3289 32.9043 16.3406C32.6582 16.3757 32.4336 16.4304 32.2305 16.5046C32.0273 16.575 31.8633 16.6804 31.7383 16.821C31.6172 16.9578 31.5566 17.1394 31.5566 17.366C31.5566 17.6824 31.6738 17.9207 31.9082 18.0808C32.1426 18.241 32.4395 18.321 32.7988 18.321ZM36.9766 21.6492V12.6492H38.207V13.7156H38.3125C38.3906 13.5789 38.498 13.4207 38.6348 13.241C38.7754 13.0613 38.9707 12.905 39.2207 12.7722C39.4707 12.6355 39.7969 12.5671 40.1992 12.5671C40.7266 12.5671 41.1953 12.7 41.6055 12.9656C42.0195 13.2312 42.3457 13.616 42.584 14.1199C42.8223 14.6238 42.9414 15.2312 42.9414 15.9421C42.9414 16.6453 42.8242 17.2507 42.5898 17.7585C42.3555 18.2625 42.0312 18.6511 41.6172 18.9246C41.207 19.1941 40.7363 19.3289 40.2051 19.3289C39.8105 19.3289 39.4863 19.2625 39.2324 19.1296C38.9824 18.9929 38.7852 18.8347 38.6406 18.655C38.5 18.4753 38.3906 18.3171 38.3125 18.1804H38.2422V21.6492H36.9766ZM39.9297 18.2449C40.3086 18.2449 40.625 18.1433 40.8789 17.9402C41.1328 17.7371 41.3242 17.4617 41.4531 17.114C41.5859 16.7625 41.6523 16.3679 41.6523 15.9304C41.6523 15.4968 41.5879 15.1082 41.459 14.7644C41.3301 14.4207 41.1387 14.1492 40.8848 13.95C40.6309 13.7507 40.3125 13.6511 39.9297 13.6511C39.5586 13.6511 39.2461 13.7468 38.9922 13.9382C38.7383 14.1257 38.5449 14.3914 38.4121 14.7351C38.2832 15.075 38.2188 15.4734 38.2188 15.9304C38.2188 16.3875 38.2852 16.7898 38.418 17.1375C38.5508 17.4851 38.7441 17.7566 38.998 17.9519C39.2559 18.1472 39.5664 18.2449 39.9297 18.2449ZM43.0762 13.7507V12.6492H48.5898V13.7507H46.4629V19.2H45.2148V13.7507H43.0762ZM52.1172 19.2V12.6492H57.4492V19.2H56.2012V13.7507H53.3477V19.2H52.1172ZM58.668 21.6492V12.6492H59.8984V13.7156H60.0039C60.082 13.5789 60.1895 13.4207 60.3262 13.241C60.4668 13.0613 60.6621 12.905 60.9121 12.7722C61.1621 12.6355 61.4883 12.5671 61.8906 12.5671C62.418 12.5671 62.8867 12.7 63.2969 12.9656C63.7109 13.2312 64.0371 13.616 64.2754 14.1199C64.5137 14.6238 64.6328 15.2312 64.6328 15.9421C64.6328 16.6453 64.5156 17.2507 64.2812 17.7585C64.0469 18.2625 63.7227 18.6511 63.3086 18.9246C62.8984 19.1941 62.4277 19.3289 61.8965 19.3289C61.502 19.3289 61.1777 19.2625 60.9238 19.1296C60.6738 18.9929 60.4766 18.8347 60.332 18.655C60.1914 18.4753 60.082 18.3171 60.0039 18.1804H59.9336V21.6492H58.668ZM61.6211 18.2449C62 18.2449 62.3164 18.1433 62.5703 17.9402C62.8242 17.7371 63.0156 17.4617 63.1445 17.114C63.2773 16.7625 63.3438 16.3679 63.3438 15.9304C63.3438 15.4968 63.2793 15.1082 63.1504 14.7644C63.0215 14.4207 62.8301 14.1492 62.5762 13.95C62.3223 13.7507 62.0039 13.6511 61.6211 13.6511C61.25 13.6511 60.9375 13.7468 60.6836 13.9382C60.4297 14.1257 60.2363 14.3914 60.1035 14.7351C59.9746 15.075 59.9102 15.4734 59.9102 15.9304C59.9102 16.3875 59.9766 16.7898 60.1094 17.1375C60.2422 17.4851 60.4355 17.7566 60.6895 17.9519C60.9473 18.1472 61.2578 18.2449 61.6211 18.2449ZM68.3066 19.3347C67.6934 19.3347 67.1562 19.1941 66.6953 18.9128C66.2383 18.6316 65.8828 18.2371 65.6289 17.7292C65.3789 17.2214 65.2539 16.6316 65.2539 15.9597C65.2539 15.28 65.3789 14.6863 65.6289 14.1785C65.8828 13.6667 66.2383 13.2703 66.6953 12.989C67.1562 12.7078 67.6934 12.5671 68.3066 12.5671C68.9238 12.5671 69.4609 12.7078 69.918 12.989C70.375 13.2703 70.7305 13.6667 70.9844 14.1785C71.2383 14.6863 71.3652 15.28 71.3652 15.9597C71.3652 16.6316 71.2383 17.2214 70.9844 17.7292C70.7305 18.2371 70.375 18.6316 69.918 18.9128C69.4609 19.1941 68.9238 19.3347 68.3066 19.3347ZM68.3066 18.2625C68.709 18.2625 69.041 18.157 69.3027 17.946C69.5645 17.7351 69.7578 17.4558 69.8828 17.1082C70.0117 16.7566 70.0762 16.3738 70.0762 15.9597C70.0762 15.5378 70.0117 15.1511 69.8828 14.7996C69.7578 14.448 69.5645 14.1667 69.3027 13.9558C69.041 13.7449 68.709 13.6394 68.3066 13.6394C67.9082 13.6394 67.5781 13.7449 67.3164 13.9558C67.0586 14.1667 66.8652 14.448 66.7363 14.7996C66.6074 15.1511 66.543 15.5378 66.543 15.9597C66.543 16.3738 66.6074 16.7566 66.7363 17.1082C66.8652 17.4558 67.0586 17.7351 67.3164 17.946C67.5781 18.157 67.9082 18.2625 68.3066 18.2625ZM71.6406 21.0867V18.0984H72.168C72.3047 17.9734 72.4219 17.825 72.5195 17.6531C72.6172 17.4773 72.6973 17.2703 72.7598 17.032C72.8262 16.7898 72.8828 16.5105 72.9297 16.1941C72.9766 15.8777 73.0176 15.5125 73.0527 15.0984L73.2578 12.6492H77.7051V18.0984H78.7129V21.0867H77.4648V19.2H72.9062V21.0867H71.6406ZM73.5391 18.0984H76.4629V13.739H74.3945L74.2539 15.0984C74.1953 15.7898 74.1152 16.3875 74.0137 16.8914C73.916 17.3914 73.7578 17.7937 73.5391 18.0984ZM81.3555 19.3406C80.9414 19.3406 80.5664 19.2644 80.2305 19.1121C79.8945 18.9558 79.6289 18.7292 79.4336 18.4324C79.2383 18.1355 79.1406 17.7742 79.1406 17.3484C79.1406 16.9773 79.2109 16.6746 79.3516 16.4402C79.4961 16.2019 79.6895 16.0125 79.9316 15.8718C80.1738 15.7312 80.4434 15.6257 80.7402 15.5554C81.0371 15.4851 81.3418 15.4304 81.6543 15.3914C82.0488 15.3484 82.3672 15.3113 82.6094 15.28C82.8516 15.2488 83.0273 15.2 83.1367 15.1335C83.25 15.0632 83.3066 14.9519 83.3066 14.7996V14.7703C83.3066 14.3992 83.2012 14.1121 82.9902 13.9089C82.7832 13.7058 82.4746 13.6042 82.0645 13.6042C81.6387 13.6042 81.3008 13.698 81.0508 13.8855C80.8047 14.0691 80.6348 14.2781 80.541 14.5125L79.3398 14.2371C79.4844 13.8386 79.6934 13.5183 79.9668 13.2761C80.2441 13.03 80.5605 12.8503 80.916 12.7371C81.2754 12.6238 81.6504 12.5671 82.041 12.5671C82.3027 12.5671 82.5801 12.5984 82.873 12.6609C83.166 12.7195 83.4414 12.8308 83.6992 12.9949C83.9609 13.155 84.1738 13.3855 84.3379 13.6863C84.502 13.9871 84.584 14.3757 84.584 14.8523V19.2H83.3359V18.3035H83.2891C83.2109 18.4636 83.0879 18.6238 82.9199 18.7839C82.7559 18.9441 82.5449 19.0769 82.2871 19.1824C82.0293 19.2878 81.7188 19.3406 81.3555 19.3406ZM81.6309 18.321C81.9863 18.321 82.2891 18.2527 82.5391 18.116C82.7891 17.9753 82.9805 17.7917 83.1133 17.5652C83.2461 17.3386 83.3125 17.0984 83.3125 16.8445V15.9949C83.2656 16.0378 83.1777 16.0789 83.0488 16.1179C82.9199 16.157 82.7734 16.1902 82.6094 16.2175C82.4453 16.2449 82.2852 16.2703 82.1289 16.2937C81.9727 16.3132 81.8418 16.3289 81.7363 16.3406C81.4902 16.3757 81.2656 16.4304 81.0625 16.5046C80.8594 16.575 80.6953 16.6804 80.5703 16.821C80.4492 16.9578 80.3887 17.1394 80.3887 17.366C80.3887 17.6824 80.5059 17.9207 80.7402 18.0808C80.9746 18.241 81.2715 18.321 81.6309 18.321ZM85.3867 19.2L87.9297 15.8484L85.416 12.6492H86.8984L88.9258 15.3738H89.377V12.6492H90.6543V15.3738H91.0938L93.1152 12.6492H94.6035L92.1016 15.8484L94.6328 19.2H93.1211L91.082 16.4695H90.6543V19.2H89.377V16.4695H88.9492L86.8984 19.2H85.3867Z" fill="white"/>
</svg>
