<svg width="32" height="32" viewBox="0 0 32 32" fill="none" xmlns="http://www.w3.org/2000/svg">
<rect width="32" height="32" rx="16" fill="#10B981"/>
<path fill-rule="evenodd" clip-rule="evenodd" d="M10 15.367H15.367V10H10.573C10.421 10 10.2753 10.0604 10.1678 10.1678C10.0604 10.2753 10 10.421 10 10.573V15.367ZM11.5 13.867V11.5H13.867V13.867H11.5ZM16.633 16.633V22H21.427C21.5022 22 21.5768 21.9852 21.6463 21.9564C21.7158 21.9276 21.779 21.8854 21.8322 21.8322C21.8854 21.779 21.9276 21.7158 21.9564 21.6463C21.9852 21.5768 22 21.5022 22 21.427V16.633H16.633ZM18.133 18.133H20.5V20.5H18.133V18.133ZM16.633 10H21.427C21.743 10 22 10.256 22 10.573V15.367H16.633V10ZM18.133 13.867V11.5H20.5V13.867H18.133ZM11.5 18.133V20.5H13.867V18.133H11.5ZM15.367 16.633V22H10.573C10.4978 22 10.4232 21.9852 10.3537 21.9564C10.2842 21.9276 10.221 21.8854 10.1678 21.8322C10.1146 21.779 10.0724 21.7158 10.0436 21.6463C10.0148 21.5768 10 21.5022 10 21.427V16.633H15.367Z" fill="white"/>
</svg>
