<svg width="24" height="24" viewBox="0 0 24 24" fill="none" xmlns="http://www.w3.org/2000/svg">
<path fill-rule="evenodd" clip-rule="evenodd" d="M12.0001 22C17.5229 22 22.0001 17.5228 22.0001 12C22.0001 6.47715 17.5229 2 12.0001 2C6.47721 2 2.00006 6.47715 2.00006 12C2.00006 17.5228 6.47721 22 12.0001 22Z" stroke="#F3F4F6" stroke-width="1.5" stroke-linecap="round" stroke-linejoin="round"/>
<path d="M10.6841 9.64404H11.8991V15.72H11.8971C10.6461 15.72 9.27107 14.96 8.29607 13.56C6.83207 11.508 6.43207 9.95704 6.43207 9.64504" stroke="#F3F4F6" stroke-width="1.5" stroke-linecap="round" stroke-linejoin="round"/>
<path d="M16.6581 15.72C16.6581 15.72 16.2161 14.788 15.3191 13.763C14.7211 13.062 13.8791 12.683 13.1131 12.683C13.8791 12.683 14.7211 12.303 15.3191 11.603C16.2161 10.577 16.6581 9.64502 16.6581 9.64502" stroke="#F3F4F6" stroke-width="1.5" stroke-linecap="round" stroke-linejoin="round"/>
<path d="M13.1131 12.6841H11.8971" stroke="#F3F4F6" stroke-width="1.5" stroke-linecap="round" stroke-linejoin="round"/>
</svg>
