<svg width="347" height="132" viewBox="0 0 347 132" fill="none" xmlns="http://www.w3.org/2000/svg">
<path d="M9 35H3V7H27.36V35H21.4V12.4H9V35ZM37.6316 18.6C38.8316 16.88 41.0316 15.24 44.5916 15.24C50.6716 15.24 53.9516 20.16 53.9516 25.4C53.9516 30.64 50.6716 35.56 44.5916 35.56C41.5516 35.56 39.5116 34.32 38.2716 32.96V43.8H32.7116V15.8H37.6316V18.6ZM48.2716 25.4C48.2716 22.4 46.3916 19.92 43.2316 19.92C40.7916 19.92 38.9916 21.44 38.2316 23.12V27.68C38.9916 29.36 40.7916 30.88 43.2316 30.88C46.3916 30.88 48.2716 28.4 48.2716 25.4ZM56.5144 25.4C56.5144 18.68 61.5544 15.24 67.1144 15.24C72.7144 15.24 77.7144 18.68 77.7144 25.4C77.7144 32.12 72.7144 35.56 67.1144 35.56C61.5544 35.56 56.5144 32.12 56.5144 25.4ZM72.0744 25.4C72.0744 22.44 70.3144 20.2 67.1144 20.2C63.9544 20.2 62.1944 22.44 62.1944 25.4C62.1944 28.36 63.9544 30.6 67.1144 30.6C70.3144 30.6 72.0744 28.36 72.0744 25.4ZM80.2644 25.4C80.2644 18.16 85.8244 15.24 90.1444 15.24C98.1044 15.24 100.664 21.52 99.3844 27.2H85.8644C86.5044 30 89.4644 31.16 92.6244 31.16C94.8244 31.16 96.7844 30.72 98.4244 30V34.36C96.6244 35.12 94.2644 35.56 91.3844 35.56C85.3044 35.56 80.2644 32.08 80.2644 25.4ZM94.3844 23.6C94.5844 22.28 93.8244 19.48 90.3444 19.48C87.9844 19.48 85.9044 20.96 85.8244 23.6H94.3844ZM108.701 35H103.141V15.8H108.701V22.96H111.021L115.901 15.8H122.141L115.541 25.28L122.701 35H116.461L110.941 27.4H108.701V35ZM134.975 35H129.455V20.48H123.335V15.8H141.095V20.48H134.975V35ZM156.546 40.08H151.426V30.76H154.106C156.426 26.72 157.026 21.88 156.906 15.8H172.706V30.76H175.586V40.08H170.466V35H156.546V40.08ZM162.026 20.04C161.866 24.56 161.306 27.64 159.866 30.76H167.186V20.04H162.026ZM177.53 25.4C177.53 18.68 182.57 15.24 188.13 15.24C193.73 15.24 198.73 18.68 198.73 25.4C198.73 32.12 193.73 35.56 188.13 35.56C182.57 35.56 177.53 32.12 177.53 25.4ZM193.09 25.4C193.09 22.44 191.33 20.2 188.13 20.2C184.97 20.2 183.21 22.44 183.21 25.4C183.21 28.36 184.97 30.6 188.13 30.6C191.33 30.6 193.09 28.36 193.09 25.4ZM207.76 35H202.36V15.8H207.68L213.64 25.32L219.64 15.8H224.92V35H219.56V23.68L215.04 30.84H212.28L207.76 23.68V35ZM246.786 30.04C246.786 31.04 247.426 31.32 248.146 31.32C248.466 31.32 248.826 31.28 249.186 31.16V34.8C248.306 35.12 247.186 35.36 246.106 35.36C244.146 35.36 242.666 34.64 241.866 33.2C239.986 34.68 237.786 35.56 234.946 35.56C231.346 35.56 228.226 33.48 228.226 29.68C228.226 24.8 232.826 23.28 236.666 23.28C238.186 23.28 239.866 23.48 241.226 23.8V23.12C241.226 21.2 239.706 19.88 236.706 19.88C234.066 19.88 231.706 20.6 229.906 21.32V16.52C231.466 16 234.386 15.24 237.346 15.24C243.106 15.24 246.786 17.6 246.786 23.92V30.04ZM237.946 26.6C235.906 26.6 233.906 27.28 233.906 29.24C233.906 30.68 235.226 31.6 236.906 31.6C238.466 31.6 239.946 31.16 241.226 30.04V27.04C240.386 26.84 239.106 26.6 237.946 26.6ZM6.12 89.08H0.84V77.72H4.12C7.72 71.28 8.56 62.8 8.56 55H27.6V77.72H31.16V89.08H25.88V83H6.12V89.08ZM14.16 60.4C13.76 66.6 12.88 73.12 10.48 77.72H21.6V60.4H14.16ZM33.155 73.4C33.155 66.68 38.195 63.24 43.755 63.24C49.355 63.24 54.355 66.68 54.355 73.4C54.355 80.12 49.355 83.56 43.755 83.56C38.195 83.56 33.155 80.12 33.155 73.4ZM48.715 73.4C48.715 70.44 46.955 68.2 43.755 68.2C40.595 68.2 38.835 70.44 38.835 73.4C38.835 76.36 40.595 78.6 43.755 78.6C46.955 78.6 48.715 76.36 48.715 73.4ZM66.1534 68.2C65.5934 76.84 64.1134 83.4 58.8334 83.4C57.9534 83.4 56.9134 83.24 55.7934 82.84V78.44C56.1934 78.6 56.5934 78.68 56.9534 78.68C59.9934 78.68 60.6734 72.4 61.0334 63.8H76.6334V83H71.0734V68.2H66.1534ZM91.3444 83H81.3444V63.8H86.9044V69.8H91.3444C96.3844 69.8 99.1044 72.72 99.1044 76.4C99.1044 80.08 96.3844 83 91.3444 83ZM86.8644 73.8V79H89.9844C92.1844 79 93.3844 78.04 93.3844 76.4C93.3844 74.76 92.1844 73.8 89.9844 73.8H86.8644ZM119.006 83H113.486V77C111.966 77.56 110.486 77.8 108.566 77.8C104.446 77.8 101.086 75.6 101.086 70.64V63.8H106.646V70.12C106.646 72.4 108.046 73.12 110.086 73.12C111.366 73.12 112.446 72.96 113.486 72.52V63.8H119.006V83ZM122.647 73.4C122.647 66.16 128.207 63.24 132.527 63.24C140.487 63.24 143.047 69.52 141.767 75.2H128.247C128.887 78 131.847 79.16 135.007 79.16C137.207 79.16 139.167 78.72 140.807 78V82.36C139.007 83.12 136.647 83.56 133.767 83.56C127.687 83.56 122.647 80.08 122.647 73.4ZM136.767 71.6C136.967 70.28 136.207 67.48 132.727 67.48C130.367 67.48 128.287 68.96 128.207 71.6H136.767ZM160.671 55.8H165.031V77.84H169.591V83H154.071V77.84H159.191V61.8L154.071 63.72V58.32L160.671 55.8ZM191.549 62.76C191.549 65.56 189.989 67.72 187.429 68.6C190.189 69.44 192.669 71.56 192.669 75.56C192.669 81.28 187.389 83.56 181.789 83.56C178.269 83.56 175.429 83 172.349 81.72V76.16C175.429 77.88 178.189 78.32 181.309 78.28C184.389 78.28 186.949 77.28 186.949 74.72C186.949 72.4 184.949 71.56 182.229 71.56H177.749L177.789 66.44L181.549 66.48C184.229 66.48 185.869 65.48 185.869 63.6C185.869 61.64 184.149 60.48 180.869 60.48C178.429 60.48 175.509 61.28 172.829 62.92V57.36C175.269 56.04 178.349 55.24 181.709 55.24C187.349 55.24 191.549 57.8 191.549 62.76ZM215.377 62.76C215.377 65.56 213.817 67.72 211.257 68.6C214.017 69.44 216.497 71.56 216.497 75.56C216.497 81.28 211.217 83.56 205.617 83.56C202.097 83.56 199.257 83 196.177 81.72V76.16C199.257 77.88 202.017 78.32 205.137 78.28C208.217 78.28 210.777 77.28 210.777 74.72C210.777 72.4 208.777 71.56 206.057 71.56H201.577L201.617 66.44L205.377 66.48C208.057 66.48 209.697 65.48 209.697 63.6C209.697 61.64 207.977 60.48 204.697 60.48C202.257 60.48 199.337 61.28 196.657 62.92V57.36C199.097 56.04 202.177 55.24 205.537 55.24C211.177 55.24 215.377 57.8 215.377 62.76ZM234.752 83H229.352V63.8H234.672L240.632 73.32L246.632 63.8H251.912V83H246.552V71.68L242.032 78.84H239.272L234.752 71.68V83ZM267.978 66.36H255.338V63.08L259.698 58.8C260.498 58.0267 261.124 57.3867 261.578 56.88C262.031 56.3467 262.351 55.8667 262.538 55.44C262.724 55.0133 262.818 54.5733 262.818 54.12C262.818 53.64 262.658 53.2667 262.338 53C262.044 52.7333 261.631 52.6 261.098 52.6C260.591 52.6 260.044 52.7333 259.458 53C258.898 53.2667 258.271 53.7067 257.578 54.32L255.178 51.36C256.031 50.6133 256.978 50.0133 258.018 49.56C259.084 49.08 260.324 48.84 261.738 48.84C263.471 48.84 264.858 49.2667 265.898 50.12C266.964 50.9467 267.498 52.1467 267.498 53.72C267.498 54.52 267.351 55.2667 267.058 55.96C266.764 56.6267 266.298 57.3333 265.658 58.08C265.018 58.8 264.178 59.64 263.138 60.6L261.098 62.44H267.978V66.36Z" fill="white"/>
<mask id="path-2-inside-1_2260_4241" fill="white">
<path d="M0 116H50V128H0V116Z"/>
</mask>
<path d="M49 116V128H51V116H49Z" fill="white" mask="url(#path-2-inside-1_2260_4241)"/>
<path d="M4.65625 116.359V128H3.28125V117.844H3.20312L0.375 119.734V118.297L3.28125 116.359H4.65625ZM13.1719 120.406C12.8698 120.411 12.5651 120.49 12.2578 120.641C11.9557 120.792 11.7031 120.992 11.5 121.242C11.3021 121.487 11.2031 121.76 11.2031 122.062H9.875C9.88021 121.557 10.0391 121.086 10.3516 120.648C10.6641 120.206 11.0703 119.846 11.5703 119.57C12.0703 119.294 12.6042 119.156 13.1719 119.156C13.9688 119.156 14.6458 119.359 15.2031 119.766C15.7604 120.167 16.1823 120.698 16.4688 121.359C16.7604 122.016 16.9062 122.729 16.9062 123.5V123.812C16.9062 124.583 16.7604 125.299 16.4688 125.961C16.1823 126.622 15.7604 127.154 15.2031 127.555C14.6458 127.956 13.9688 128.156 13.1719 128.156C12.5365 128.156 11.9714 128.016 11.4766 127.734C10.9818 127.453 10.5911 127.076 10.3047 126.602C10.0234 126.122 9.88021 125.594 9.875 125.016H11.2031C11.2031 125.344 11.2943 125.651 11.4766 125.938C11.6641 126.224 11.9089 126.456 12.2109 126.633C12.513 126.81 12.8333 126.901 13.1719 126.906C13.6823 126.901 14.1146 126.742 14.4688 126.43C14.8229 126.117 15.0938 125.724 15.2812 125.25C15.4688 124.776 15.5625 124.297 15.5625 123.812V123.5C15.5625 123.01 15.4688 122.531 15.2812 122.062C15.099 121.589 14.8307 121.195 14.4766 120.883C14.1224 120.57 13.6875 120.411 13.1719 120.406ZM16.1094 122.984V124.234H12.2969V122.984H16.1094ZM17.0625 120.516V119.266H24.1406V120.516H21.2812V128H19.9375V120.516H17.0625ZM27.4688 128.203C26.9167 128.203 26.4141 128.099 25.9609 127.891C25.5078 127.677 25.1484 127.37 24.8828 126.969C24.6172 126.568 24.4844 126.083 24.4844 125.516C24.4844 125.016 24.5833 124.612 24.7812 124.305C24.9792 123.992 25.2422 123.747 25.5703 123.57C25.9036 123.388 26.2682 123.253 26.6641 123.164C27.0651 123.076 27.4688 123.005 27.875 122.953C28.4062 122.885 28.8359 122.833 29.1641 122.797C29.4974 122.76 29.7396 122.698 29.8906 122.609C30.0469 122.521 30.125 122.37 30.125 122.156V122.109C30.125 121.552 29.9714 121.12 29.6641 120.812C29.362 120.5 28.901 120.344 28.2812 120.344C27.6458 120.344 27.1458 120.484 26.7812 120.766C26.4167 121.042 26.1615 121.339 26.0156 121.656L24.7344 121.203C24.9635 120.672 25.2682 120.258 25.6484 119.961C26.0339 119.664 26.4505 119.456 26.8984 119.336C27.3516 119.216 27.7969 119.156 28.2344 119.156C28.5156 119.156 28.8385 119.19 29.2031 119.258C29.5677 119.32 29.9219 119.456 30.2656 119.664C30.6146 119.867 30.901 120.177 31.125 120.594C31.3542 121.005 31.4688 121.557 31.4688 122.25V128H30.125V126.812H30.0625C29.974 127 29.8229 127.203 29.6094 127.422C29.3958 127.635 29.112 127.82 28.7578 127.977C28.4089 128.128 27.9792 128.203 27.4688 128.203ZM27.6719 127C28.2031 127 28.651 126.896 29.0156 126.688C29.3802 126.479 29.6562 126.211 29.8438 125.883C30.0312 125.549 30.125 125.203 30.125 124.844V123.609C30.0677 123.677 29.9427 123.74 29.75 123.797C29.5625 123.849 29.3438 123.896 29.0938 123.938C28.849 123.979 28.6094 124.016 28.375 124.047C28.1406 124.073 27.9531 124.094 27.8125 124.109C27.4635 124.156 27.138 124.232 26.8359 124.336C26.5339 124.435 26.2891 124.583 26.1016 124.781C25.9193 124.979 25.8281 125.25 25.8281 125.594C25.8281 126.057 26 126.409 26.3438 126.648C26.6927 126.883 27.1354 127 27.6719 127ZM32.6406 128L36.1875 123.562L32.6875 119.266H34.2656L37.1875 123H37.9062V119.266H39.25V123H39.9531L42.8594 119.266H44.4531L40.9688 123.562L44.5 128H42.8906L39.9375 124.25H39.25V128H37.9062V124.25H37.2188L34.25 128H32.6406Z" fill="#F3F4F6"/>
<mask id="path-5-inside-2_2260_4241" fill="white">
<path d="M58 116H105V128H58V116Z"/>
</mask>
<path d="M104 116V128H106V116H104Z" fill="white" mask="url(#path-5-inside-2_2260_4241)"/>
<path d="M62.6562 116.359V128H61.2812V117.844H61.2031L58.375 119.734V118.297L61.2812 116.359H62.6562ZM68.4531 128.156C67.6979 128.156 67.0286 128.029 66.4453 127.773C65.862 127.518 65.3984 127.161 65.0547 126.703C64.7109 126.24 64.526 125.703 64.5 125.094H65.9219C65.9531 125.469 66.0807 125.792 66.3047 126.062C66.5339 126.333 66.8307 126.542 67.1953 126.688C67.5651 126.833 67.974 126.906 68.4219 126.906C68.9219 126.906 69.3646 126.82 69.75 126.648C70.1406 126.471 70.4453 126.229 70.6641 125.922C70.888 125.609 71 125.25 71 124.844C71 124.411 70.8932 124.031 70.6797 123.703C70.4661 123.375 70.1536 123.12 69.7422 122.938C69.3359 122.75 68.8385 122.656 68.25 122.656H67.3125V121.406H68.25C68.7083 121.406 69.112 121.323 69.4609 121.156C69.8099 120.99 70.0833 120.755 70.2812 120.453C70.4792 120.151 70.5781 119.797 70.5781 119.391C70.5781 118.995 70.4922 118.651 70.3203 118.359C70.1484 118.068 69.9036 117.841 69.5859 117.68C69.2734 117.518 68.901 117.438 68.4688 117.438C68.0677 117.438 67.6901 117.51 67.3359 117.656C66.9818 117.802 66.6927 118.01 66.4688 118.281C66.2448 118.552 66.125 118.88 66.1094 119.266H64.75C64.7708 118.656 64.9531 118.122 65.2969 117.664C65.6406 117.206 66.0911 116.849 66.6484 116.594C67.2109 116.333 67.8281 116.203 68.5 116.203C69.2188 116.203 69.8359 116.349 70.3516 116.641C70.8672 116.927 71.263 117.307 71.5391 117.781C71.8151 118.255 71.9531 118.766 71.9531 119.312C71.9531 119.974 71.7812 120.534 71.4375 120.992C71.099 121.451 70.6354 121.771 70.0469 121.953V122.047C70.776 122.167 71.3464 122.479 71.7578 122.984C72.1693 123.484 72.375 124.104 72.375 124.844C72.375 125.474 72.2031 126.039 71.8594 126.539C71.5208 127.039 71.0547 127.435 70.4609 127.727C69.8724 128.013 69.2031 128.156 68.4531 128.156ZM77.8906 128.156C77.1354 128.156 76.4661 128.029 75.8828 127.773C75.2995 127.518 74.8359 127.161 74.4922 126.703C74.1484 126.24 73.9635 125.703 73.9375 125.094H75.3594C75.3906 125.469 75.5182 125.792 75.7422 126.062C75.9714 126.333 76.2682 126.542 76.6328 126.688C77.0026 126.833 77.4115 126.906 77.8594 126.906C78.3594 126.906 78.8021 126.82 79.1875 126.648C79.5781 126.471 79.8828 126.229 80.1016 125.922C80.3255 125.609 80.4375 125.25 80.4375 124.844C80.4375 124.411 80.3307 124.031 80.1172 123.703C79.9036 123.375 79.5911 123.12 79.1797 122.938C78.7734 122.75 78.276 122.656 77.6875 122.656H76.75V121.406H77.6875C78.1458 121.406 78.5495 121.323 78.8984 121.156C79.2474 120.99 79.5208 120.755 79.7188 120.453C79.9167 120.151 80.0156 119.797 80.0156 119.391C80.0156 118.995 79.9297 118.651 79.7578 118.359C79.5859 118.068 79.3411 117.841 79.0234 117.68C78.7109 117.518 78.3385 117.438 77.9062 117.438C77.5052 117.438 77.1276 117.51 76.7734 117.656C76.4193 117.802 76.1302 118.01 75.9062 118.281C75.6823 118.552 75.5625 118.88 75.5469 119.266H74.1875C74.2083 118.656 74.3906 118.122 74.7344 117.664C75.0781 117.206 75.5286 116.849 76.0859 116.594C76.6484 116.333 77.2656 116.203 77.9375 116.203C78.6562 116.203 79.2734 116.349 79.7891 116.641C80.3047 116.927 80.7005 117.307 80.9766 117.781C81.2526 118.255 81.3906 118.766 81.3906 119.312C81.3906 119.974 81.2188 120.534 80.875 120.992C80.5365 121.451 80.0729 121.771 79.4844 121.953V122.047C80.2135 122.167 80.7839 122.479 81.1953 122.984C81.6068 123.484 81.8125 124.104 81.8125 124.844C81.8125 125.474 81.6406 126.039 81.2969 126.539C80.9583 127.039 80.4922 127.435 79.8984 127.727C79.3099 128.013 78.6406 128.156 77.8906 128.156ZM88.1875 126.188L91.2344 119.266H92.5L88.7344 128H87.6406L83.9375 119.266H85.1875L88.1875 126.188ZM84.75 119.266V128H83.4219V119.266H84.75ZM91.625 128V119.266H92.9531V128H91.625ZM94.2344 122.188V121.297L96.8906 118.938C97.2917 118.583 97.5911 118.281 97.7891 118.031C97.9922 117.776 98.0938 117.5 98.0938 117.203C98.0938 116.865 97.9635 116.596 97.7031 116.398C97.4427 116.195 97.1198 116.094 96.7344 116.094C96.3229 116.094 95.9922 116.203 95.7422 116.422C95.4922 116.635 95.3698 116.917 95.375 117.266H94.1875C94.1875 116.62 94.4271 116.102 94.9062 115.711C95.3906 115.315 96.0052 115.115 96.75 115.109C97.2552 115.109 97.6953 115.201 98.0703 115.383C98.4505 115.565 98.7474 115.812 98.9609 116.125C99.1745 116.438 99.2812 116.792 99.2812 117.188C99.2812 117.495 99.2188 117.781 99.0938 118.047C98.9688 118.312 98.7734 118.589 98.5078 118.875C98.2422 119.156 97.901 119.479 97.4844 119.844L96 121.141V121.188H99.4844V122.188H94.2344Z" fill="#F3F4F6"/>
<mask id="path-8-inside-3_2260_4241" fill="white">
<path d="M113 116H191V128H113V116Z"/>
</mask>
<path d="M190 116V128H192V116H190Z" fill="white" mask="url(#path-8-inside-3_2260_4241)"/>
<path d="M117.766 128.156C117.01 128.156 116.341 128.029 115.758 127.773C115.174 127.518 114.711 127.161 114.367 126.703C114.023 126.24 113.839 125.703 113.812 125.094H115.234C115.266 125.469 115.393 125.792 115.617 126.062C115.846 126.333 116.143 126.542 116.508 126.688C116.878 126.833 117.286 126.906 117.734 126.906C118.234 126.906 118.677 126.82 119.062 126.648C119.453 126.471 119.758 126.229 119.977 125.922C120.201 125.609 120.312 125.25 120.312 124.844C120.312 124.411 120.206 124.031 119.992 123.703C119.779 123.375 119.466 123.12 119.055 122.938C118.648 122.75 118.151 122.656 117.562 122.656H116.625V121.406H117.562C118.021 121.406 118.424 121.323 118.773 121.156C119.122 120.99 119.396 120.755 119.594 120.453C119.792 120.151 119.891 119.797 119.891 119.391C119.891 118.995 119.805 118.651 119.633 118.359C119.461 118.068 119.216 117.841 118.898 117.68C118.586 117.518 118.214 117.438 117.781 117.438C117.38 117.438 117.003 117.51 116.648 117.656C116.294 117.802 116.005 118.01 115.781 118.281C115.557 118.552 115.438 118.88 115.422 119.266H114.062C114.083 118.656 114.266 118.122 114.609 117.664C114.953 117.206 115.404 116.849 115.961 116.594C116.523 116.333 117.141 116.203 117.812 116.203C118.531 116.203 119.148 116.349 119.664 116.641C120.18 116.927 120.576 117.307 120.852 117.781C121.128 118.255 121.266 118.766 121.266 119.312C121.266 119.974 121.094 120.534 120.75 120.992C120.411 121.451 119.948 121.771 119.359 121.953V122.047C120.089 122.167 120.659 122.479 121.07 122.984C121.482 123.484 121.688 124.104 121.688 124.844C121.688 125.474 121.516 126.039 121.172 126.539C120.833 127.039 120.367 127.435 119.773 127.727C119.185 128.013 118.516 128.156 117.766 128.156ZM130.578 128.188C129.766 128.188 129.062 127.995 128.469 127.609C127.88 127.219 127.424 126.685 127.102 126.008C126.784 125.331 126.625 124.557 126.625 123.688C126.625 122.797 126.789 122.013 127.117 121.336C127.445 120.654 127.904 120.12 128.492 119.734C129.086 119.349 129.776 119.156 130.562 119.156C131.177 119.156 131.729 119.271 132.219 119.5C132.714 119.724 133.117 120.042 133.43 120.453C133.747 120.865 133.943 121.344 134.016 121.891H132.672C132.604 121.625 132.482 121.375 132.305 121.141C132.128 120.906 131.893 120.719 131.602 120.578C131.315 120.432 130.974 120.359 130.578 120.359C130.057 120.359 129.602 120.495 129.211 120.766C128.82 121.036 128.516 121.419 128.297 121.914C128.078 122.404 127.969 122.979 127.969 123.641C127.969 124.312 128.076 124.901 128.289 125.406C128.503 125.906 128.805 126.294 129.195 126.57C129.591 126.846 130.052 126.984 130.578 126.984C131.104 126.984 131.555 126.849 131.93 126.578C132.305 126.302 132.552 125.927 132.672 125.453H134.016C133.943 125.969 133.755 126.432 133.453 126.844C133.156 127.255 132.763 127.583 132.273 127.828C131.789 128.068 131.224 128.188 130.578 128.188ZM135.281 128V119.266H142.141V128H140.797V120.516H136.609V128H135.281ZM146.422 128.203C145.87 128.203 145.367 128.099 144.914 127.891C144.461 127.677 144.102 127.37 143.836 126.969C143.57 126.568 143.438 126.083 143.438 125.516C143.438 125.016 143.536 124.612 143.734 124.305C143.932 123.992 144.195 123.747 144.523 123.57C144.857 123.388 145.221 123.253 145.617 123.164C146.018 123.076 146.422 123.005 146.828 122.953C147.359 122.885 147.789 122.833 148.117 122.797C148.451 122.76 148.693 122.698 148.844 122.609C149 122.521 149.078 122.37 149.078 122.156V122.109C149.078 121.552 148.924 121.12 148.617 120.812C148.315 120.5 147.854 120.344 147.234 120.344C146.599 120.344 146.099 120.484 145.734 120.766C145.37 121.042 145.115 121.339 144.969 121.656L143.688 121.203C143.917 120.672 144.221 120.258 144.602 119.961C144.987 119.664 145.404 119.456 145.852 119.336C146.305 119.216 146.75 119.156 147.188 119.156C147.469 119.156 147.792 119.19 148.156 119.258C148.521 119.32 148.875 119.456 149.219 119.664C149.568 119.867 149.854 120.177 150.078 120.594C150.307 121.005 150.422 121.557 150.422 122.25V128H149.078V126.812H149.016C148.927 127 148.776 127.203 148.562 127.422C148.349 127.635 148.065 127.82 147.711 127.977C147.362 128.128 146.932 128.203 146.422 128.203ZM146.625 127C147.156 127 147.604 126.896 147.969 126.688C148.333 126.479 148.609 126.211 148.797 125.883C148.984 125.549 149.078 125.203 149.078 124.844V123.609C149.021 123.677 148.896 123.74 148.703 123.797C148.516 123.849 148.297 123.896 148.047 123.938C147.802 123.979 147.562 124.016 147.328 124.047C147.094 124.073 146.906 124.094 146.766 124.109C146.417 124.156 146.091 124.232 145.789 124.336C145.487 124.435 145.242 124.583 145.055 124.781C144.872 124.979 144.781 125.25 144.781 125.594C144.781 126.057 144.953 126.409 145.297 126.648C145.646 126.883 146.089 127 146.625 127ZM151.359 128V126.75H151.672C152.026 126.75 152.302 126.654 152.5 126.461C152.698 126.263 152.844 125.904 152.938 125.383C153.036 124.862 153.104 124.115 153.141 123.141L153.297 119.266H159.109V128H157.766V120.516H154.562L154.422 123.641C154.391 124.354 154.328 124.984 154.234 125.531C154.141 126.073 153.995 126.529 153.797 126.898C153.604 127.263 153.346 127.539 153.023 127.727C152.701 127.909 152.297 128 151.812 128H151.359ZM161.984 122.438H164.484C165.505 122.432 166.286 122.69 166.828 123.211C167.37 123.732 167.641 124.391 167.641 125.188C167.641 125.708 167.518 126.182 167.273 126.609C167.034 127.031 166.68 127.37 166.211 127.625C165.742 127.875 165.167 128 164.484 128H160.828V119.266H162.156V126.75H164.484C165.01 126.75 165.443 126.612 165.781 126.336C166.125 126.055 166.297 125.693 166.297 125.25C166.297 124.786 166.125 124.409 165.781 124.117C165.443 123.826 165.01 123.682 164.484 123.688H161.984V122.438ZM174.766 123.016V124.266H169.953V123.016H174.766ZM170.266 119.266V128H168.938V119.266H170.266ZM175.797 119.266V128H174.453V119.266H175.797ZM178.844 126.016L183.047 119.266H184.594V128H183.266V121.25L179.078 128H177.516V119.266H178.844V126.016Z" fill="#F3F4F6"/>
<mask id="path-11-inside-4_2260_4241" fill="white">
<path d="M199 116H274V128H199V116Z"/>
</mask>
<path d="M273 116V128H275V116H273Z" fill="white" mask="url(#path-11-inside-4_2260_4241)"/>
<path d="M199.828 128V126.984L203.672 122.766C204.12 122.276 204.487 121.849 204.773 121.484C205.065 121.12 205.281 120.776 205.422 120.453C205.568 120.13 205.641 119.792 205.641 119.438C205.641 119.026 205.542 118.672 205.344 118.375C205.151 118.073 204.888 117.841 204.555 117.68C204.221 117.518 203.844 117.438 203.422 117.438C202.974 117.438 202.583 117.529 202.25 117.711C201.922 117.893 201.667 118.151 201.484 118.484C201.307 118.812 201.219 119.198 201.219 119.641H199.875C199.875 118.958 200.031 118.359 200.344 117.844C200.661 117.328 201.091 116.927 201.633 116.641C202.18 116.349 202.792 116.203 203.469 116.203C204.151 116.203 204.755 116.349 205.281 116.641C205.807 116.927 206.219 117.315 206.516 117.805C206.818 118.289 206.969 118.833 206.969 119.438C206.969 119.865 206.891 120.281 206.734 120.688C206.583 121.089 206.318 121.539 205.938 122.039C205.562 122.539 205.042 123.146 204.375 123.859L201.766 126.656V126.75H207.172V128H199.828ZM216.078 128.188C215.266 128.188 214.562 127.995 213.969 127.609C213.38 127.219 212.924 126.685 212.602 126.008C212.284 125.331 212.125 124.557 212.125 123.688C212.125 122.797 212.289 122.013 212.617 121.336C212.945 120.654 213.404 120.12 213.992 119.734C214.586 119.349 215.276 119.156 216.062 119.156C216.677 119.156 217.229 119.271 217.719 119.5C218.214 119.724 218.617 120.042 218.93 120.453C219.247 120.865 219.443 121.344 219.516 121.891H218.172C218.104 121.625 217.982 121.375 217.805 121.141C217.628 120.906 217.393 120.719 217.102 120.578C216.815 120.432 216.474 120.359 216.078 120.359C215.557 120.359 215.102 120.495 214.711 120.766C214.32 121.036 214.016 121.419 213.797 121.914C213.578 122.404 213.469 122.979 213.469 123.641C213.469 124.312 213.576 124.901 213.789 125.406C214.003 125.906 214.305 126.294 214.695 126.57C215.091 126.846 215.552 126.984 216.078 126.984C216.604 126.984 217.055 126.849 217.43 126.578C217.805 126.302 218.052 125.927 218.172 125.453H219.516C219.443 125.969 219.255 126.432 218.953 126.844C218.656 127.255 218.263 127.583 217.773 127.828C217.289 128.068 216.724 128.188 216.078 128.188ZM223.344 128.203C222.792 128.203 222.289 128.099 221.836 127.891C221.383 127.677 221.023 127.37 220.758 126.969C220.492 126.568 220.359 126.083 220.359 125.516C220.359 125.016 220.458 124.612 220.656 124.305C220.854 123.992 221.117 123.747 221.445 123.57C221.779 123.388 222.143 123.253 222.539 123.164C222.94 123.076 223.344 123.005 223.75 122.953C224.281 122.885 224.711 122.833 225.039 122.797C225.372 122.76 225.615 122.698 225.766 122.609C225.922 122.521 226 122.37 226 122.156V122.109C226 121.552 225.846 121.12 225.539 120.812C225.237 120.5 224.776 120.344 224.156 120.344C223.521 120.344 223.021 120.484 222.656 120.766C222.292 121.042 222.036 121.339 221.891 121.656L220.609 121.203C220.839 120.672 221.143 120.258 221.523 119.961C221.909 119.664 222.326 119.456 222.773 119.336C223.227 119.216 223.672 119.156 224.109 119.156C224.391 119.156 224.714 119.19 225.078 119.258C225.443 119.32 225.797 119.456 226.141 119.664C226.49 119.867 226.776 120.177 227 120.594C227.229 121.005 227.344 121.557 227.344 122.25V128H226V126.812H225.938C225.849 127 225.698 127.203 225.484 127.422C225.271 127.635 224.987 127.82 224.633 127.977C224.284 128.128 223.854 128.203 223.344 128.203ZM223.547 127C224.078 127 224.526 126.896 224.891 126.688C225.255 126.479 225.531 126.211 225.719 125.883C225.906 125.549 226 125.203 226 124.844V123.609C225.943 123.677 225.818 123.74 225.625 123.797C225.438 123.849 225.219 123.896 224.969 123.938C224.724 123.979 224.484 124.016 224.25 124.047C224.016 124.073 223.828 124.094 223.688 124.109C223.339 124.156 223.013 124.232 222.711 124.336C222.409 124.435 222.164 124.583 221.977 124.781C221.794 124.979 221.703 125.25 221.703 125.594C221.703 126.057 221.875 126.409 222.219 126.648C222.568 126.883 223.01 127 223.547 127ZM234.891 123.016V124.266H230.078V123.016H234.891ZM230.391 119.266V128H229.062V119.266H230.391ZM235.922 119.266V128H234.578V119.266H235.922ZM238.188 131.266C237.958 131.271 237.755 131.255 237.578 131.219C237.401 131.182 237.276 131.146 237.203 131.109L237.547 129.938L237.68 129.969C238.128 130.073 238.503 130.049 238.805 129.898C239.112 129.753 239.38 129.365 239.609 128.734L239.859 128.047L236.641 119.266H238.094L240.5 126.234H240.594L243 119.266H244.453L240.75 129.266C240.583 129.719 240.378 130.094 240.133 130.391C239.888 130.688 239.604 130.906 239.281 131.047C238.958 131.193 238.594 131.266 238.188 131.266ZM245.312 125.766H246.734C246.771 126.161 246.953 126.464 247.281 126.672C247.609 126.875 248.036 126.979 248.562 126.984C249.099 126.979 249.557 126.867 249.938 126.648C250.318 126.424 250.51 126.062 250.516 125.562C250.516 125.271 250.443 125.018 250.297 124.805C250.151 124.586 249.948 124.417 249.688 124.297C249.427 124.172 249.12 124.109 248.766 124.109H247.266V122.906H248.766C249.297 122.906 249.69 122.786 249.945 122.547C250.201 122.307 250.328 122.005 250.328 121.641C250.328 121.25 250.19 120.938 249.914 120.703C249.638 120.464 249.245 120.344 248.734 120.344C248.229 120.344 247.805 120.458 247.461 120.688C247.122 120.911 246.943 121.203 246.922 121.562H245.516C245.531 121.094 245.674 120.68 245.945 120.32C246.216 119.956 246.586 119.672 247.055 119.469C247.529 119.26 248.068 119.156 248.672 119.156C249.286 119.156 249.818 119.263 250.266 119.477C250.719 119.69 251.07 119.982 251.32 120.352C251.57 120.716 251.693 121.13 251.688 121.594C251.693 122.083 251.555 122.482 251.273 122.789C250.997 123.091 250.651 123.307 250.234 123.438V123.516C250.562 123.542 250.849 123.648 251.094 123.836C251.344 124.023 251.536 124.268 251.672 124.57C251.807 124.867 251.875 125.198 251.875 125.562C251.875 126.094 251.732 126.557 251.445 126.953C251.164 127.344 250.776 127.646 250.281 127.859C249.786 128.073 249.219 128.182 248.578 128.188C247.958 128.182 247.404 128.078 246.914 127.875C246.43 127.672 246.044 127.391 245.758 127.031C245.477 126.667 245.328 126.245 245.312 125.766ZM251.859 128V126.75H252.172C252.526 126.75 252.802 126.654 253 126.461C253.198 126.263 253.344 125.904 253.438 125.383C253.536 124.862 253.604 124.115 253.641 123.141L253.797 119.266H259.609V128H258.266V120.516H255.062L254.922 123.641C254.891 124.354 254.828 124.984 254.734 125.531C254.641 126.073 254.495 126.529 254.297 126.898C254.104 127.263 253.846 127.539 253.523 127.727C253.201 127.909 252.797 128 252.312 128H251.859ZM263.891 128.203C263.339 128.203 262.836 128.099 262.383 127.891C261.93 127.677 261.57 127.37 261.305 126.969C261.039 126.568 260.906 126.083 260.906 125.516C260.906 125.016 261.005 124.612 261.203 124.305C261.401 123.992 261.664 123.747 261.992 123.57C262.326 123.388 262.69 123.253 263.086 123.164C263.487 123.076 263.891 123.005 264.297 122.953C264.828 122.885 265.258 122.833 265.586 122.797C265.919 122.76 266.161 122.698 266.312 122.609C266.469 122.521 266.547 122.37 266.547 122.156V122.109C266.547 121.552 266.393 121.12 266.086 120.812C265.784 120.5 265.323 120.344 264.703 120.344C264.068 120.344 263.568 120.484 263.203 120.766C262.839 121.042 262.583 121.339 262.438 121.656L261.156 121.203C261.385 120.672 261.69 120.258 262.07 119.961C262.456 119.664 262.872 119.456 263.32 119.336C263.773 119.216 264.219 119.156 264.656 119.156C264.938 119.156 265.26 119.19 265.625 119.258C265.99 119.32 266.344 119.456 266.688 119.664C267.036 119.867 267.323 120.177 267.547 120.594C267.776 121.005 267.891 121.557 267.891 122.25V128H266.547V126.812H266.484C266.396 127 266.245 127.203 266.031 127.422C265.818 127.635 265.534 127.82 265.18 127.977C264.831 128.128 264.401 128.203 263.891 128.203ZM264.094 127C264.625 127 265.073 126.896 265.438 126.688C265.802 126.479 266.078 126.211 266.266 125.883C266.453 125.549 266.547 125.203 266.547 124.844V123.609C266.49 123.677 266.365 123.74 266.172 123.797C265.984 123.849 265.766 123.896 265.516 123.938C265.271 123.979 265.031 124.016 264.797 124.047C264.562 124.073 264.375 124.094 264.234 124.109C263.885 124.156 263.56 124.232 263.258 124.336C262.956 124.435 262.711 124.583 262.523 124.781C262.341 124.979 262.25 125.25 262.25 125.594C262.25 126.057 262.422 126.409 262.766 126.648C263.115 126.883 263.557 127 264.094 127Z" fill="#F3F4F6"/>
<path d="M282.391 117.609V116.359H291.125V117.609H287.469V128H286.062V117.609H282.391ZM294.781 128.188C293.943 128.188 293.216 128 292.602 127.625C291.992 127.25 291.523 126.727 291.195 126.055C290.867 125.378 290.703 124.594 290.703 123.703C290.703 122.807 290.865 122.018 291.188 121.336C291.51 120.654 291.964 120.12 292.547 119.734C293.135 119.349 293.823 119.156 294.609 119.156C295.062 119.156 295.513 119.232 295.961 119.383C296.409 119.534 296.815 119.779 297.18 120.117C297.549 120.456 297.844 120.904 298.062 121.461C298.281 122.018 298.391 122.703 298.391 123.516V124.094H291.656V122.938H297.664L297.047 123.375C297.047 122.792 296.956 122.273 296.773 121.82C296.591 121.367 296.318 121.01 295.953 120.75C295.594 120.49 295.146 120.359 294.609 120.359C294.073 120.359 293.612 120.492 293.227 120.758C292.846 121.018 292.555 121.359 292.352 121.781C292.148 122.203 292.047 122.656 292.047 123.141V123.906C292.047 124.568 292.161 125.128 292.391 125.586C292.62 126.044 292.94 126.393 293.352 126.633C293.763 126.867 294.24 126.984 294.781 126.984C295.13 126.984 295.448 126.935 295.734 126.836C296.021 126.732 296.268 126.578 296.477 126.375C296.685 126.167 296.844 125.911 296.953 125.609L298.25 125.984C298.115 126.422 297.885 126.807 297.562 127.141C297.245 127.469 296.849 127.727 296.375 127.914C295.901 128.096 295.37 128.188 294.781 128.188ZM299.656 131.266V119.266H300.938V120.656H301.094C301.193 120.505 301.331 120.312 301.508 120.078C301.685 119.839 301.94 119.625 302.273 119.438C302.607 119.25 303.057 119.156 303.625 119.156C304.359 119.156 305.005 119.341 305.562 119.711C306.12 120.076 306.555 120.596 306.867 121.273C307.185 121.945 307.344 122.74 307.344 123.656C307.344 124.578 307.188 125.38 306.875 126.062C306.562 126.74 306.128 127.263 305.57 127.633C305.013 128.003 304.37 128.188 303.641 128.188C303.083 128.188 302.635 128.094 302.297 127.906C301.958 127.714 301.698 127.497 301.516 127.258C301.333 127.013 301.193 126.812 301.094 126.656H300.984V131.266H299.656ZM303.469 126.984C304.026 126.984 304.492 126.836 304.867 126.539C305.242 126.237 305.523 125.833 305.711 125.328C305.904 124.823 306 124.26 306 123.641C306 123.026 305.906 122.471 305.719 121.977C305.531 121.482 305.25 121.089 304.875 120.797C304.505 120.505 304.036 120.359 303.469 120.359C302.922 120.359 302.464 120.497 302.094 120.773C301.724 121.044 301.443 121.427 301.25 121.922C301.062 122.411 300.969 122.984 300.969 123.641C300.969 124.297 301.065 124.878 301.258 125.383C301.451 125.883 301.732 126.276 302.102 126.562C302.477 126.844 302.932 126.984 303.469 126.984ZM308.641 131.266V119.266H309.922V120.656H310.078C310.177 120.505 310.315 120.312 310.492 120.078C310.669 119.839 310.924 119.625 311.258 119.438C311.591 119.25 312.042 119.156 312.609 119.156C313.344 119.156 313.99 119.341 314.547 119.711C315.104 120.076 315.539 120.596 315.852 121.273C316.169 121.945 316.328 122.74 316.328 123.656C316.328 124.578 316.172 125.38 315.859 126.062C315.547 126.74 315.112 127.263 314.555 127.633C313.997 128.003 313.354 128.188 312.625 128.188C312.068 128.188 311.62 128.094 311.281 127.906C310.943 127.714 310.682 127.497 310.5 127.258C310.318 127.013 310.177 126.812 310.078 126.656H309.969V131.266H308.641ZM312.453 126.984C313.01 126.984 313.477 126.836 313.852 126.539C314.227 126.237 314.508 125.833 314.695 125.328C314.888 124.823 314.984 124.26 314.984 123.641C314.984 123.026 314.891 122.471 314.703 121.977C314.516 121.482 314.234 121.089 313.859 120.797C313.49 120.505 313.021 120.359 312.453 120.359C311.906 120.359 311.448 120.497 311.078 120.773C310.708 121.044 310.427 121.427 310.234 121.922C310.047 122.411 309.953 122.984 309.953 123.641C309.953 124.297 310.049 124.878 310.242 125.383C310.435 125.883 310.716 126.276 311.086 126.562C311.461 126.844 311.917 126.984 312.453 126.984ZM320.188 128.203C319.635 128.203 319.133 128.099 318.68 127.891C318.227 127.677 317.867 127.37 317.602 126.969C317.336 126.568 317.203 126.083 317.203 125.516C317.203 125.016 317.302 124.612 317.5 124.305C317.698 123.992 317.961 123.747 318.289 123.57C318.622 123.388 318.987 123.253 319.383 123.164C319.784 123.076 320.188 123.005 320.594 122.953C321.125 122.885 321.555 122.833 321.883 122.797C322.216 122.76 322.458 122.698 322.609 122.609C322.766 122.521 322.844 122.37 322.844 122.156V122.109C322.844 121.552 322.69 121.12 322.383 120.812C322.081 120.5 321.62 120.344 321 120.344C320.365 120.344 319.865 120.484 319.5 120.766C319.135 121.042 318.88 121.339 318.734 121.656L317.453 121.203C317.682 120.672 317.987 120.258 318.367 119.961C318.753 119.664 319.169 119.456 319.617 119.336C320.07 119.216 320.516 119.156 320.953 119.156C321.234 119.156 321.557 119.19 321.922 119.258C322.286 119.32 322.641 119.456 322.984 119.664C323.333 119.867 323.62 120.177 323.844 120.594C324.073 121.005 324.188 121.557 324.188 122.25V128H322.844V126.812H322.781C322.693 127 322.542 127.203 322.328 127.422C322.115 127.635 321.831 127.82 321.477 127.977C321.128 128.128 320.698 128.203 320.188 128.203ZM320.391 127C320.922 127 321.37 126.896 321.734 126.688C322.099 126.479 322.375 126.211 322.562 125.883C322.75 125.549 322.844 125.203 322.844 124.844V123.609C322.786 123.677 322.661 123.74 322.469 123.797C322.281 123.849 322.062 123.896 321.812 123.938C321.568 123.979 321.328 124.016 321.094 124.047C320.859 124.073 320.672 124.094 320.531 124.109C320.182 124.156 319.857 124.232 319.555 124.336C319.253 124.435 319.008 124.583 318.82 124.781C318.638 124.979 318.547 125.25 318.547 125.594C318.547 126.057 318.719 126.409 319.062 126.648C319.411 126.883 319.854 127 320.391 127ZM329.438 128.188C328.625 128.188 327.922 127.995 327.328 127.609C326.74 127.219 326.284 126.685 325.961 126.008C325.643 125.331 325.484 124.557 325.484 123.688C325.484 122.797 325.648 122.013 325.977 121.336C326.305 120.654 326.763 120.12 327.352 119.734C327.945 119.349 328.635 119.156 329.422 119.156C330.036 119.156 330.589 119.271 331.078 119.5C331.573 119.724 331.977 120.042 332.289 120.453C332.607 120.865 332.802 121.344 332.875 121.891H331.531C331.464 121.625 331.341 121.375 331.164 121.141C330.987 120.906 330.753 120.719 330.461 120.578C330.174 120.432 329.833 120.359 329.438 120.359C328.917 120.359 328.461 120.495 328.07 120.766C327.68 121.036 327.375 121.419 327.156 121.914C326.938 122.404 326.828 122.979 326.828 123.641C326.828 124.312 326.935 124.901 327.148 125.406C327.362 125.906 327.664 126.294 328.055 126.57C328.451 126.846 328.911 126.984 329.438 126.984C329.964 126.984 330.414 126.849 330.789 126.578C331.164 126.302 331.411 125.927 331.531 125.453H332.875C332.802 125.969 332.615 126.432 332.312 126.844C332.016 127.255 331.622 127.583 331.133 127.828C330.648 128.068 330.083 128.188 329.438 128.188ZM336.703 128.203C336.151 128.203 335.648 128.099 335.195 127.891C334.742 127.677 334.383 127.37 334.117 126.969C333.852 126.568 333.719 126.083 333.719 125.516C333.719 125.016 333.818 124.612 334.016 124.305C334.214 123.992 334.477 123.747 334.805 123.57C335.138 123.388 335.503 123.253 335.898 123.164C336.299 123.076 336.703 123.005 337.109 122.953C337.641 122.885 338.07 122.833 338.398 122.797C338.732 122.76 338.974 122.698 339.125 122.609C339.281 122.521 339.359 122.37 339.359 122.156V122.109C339.359 121.552 339.206 121.12 338.898 120.812C338.596 120.5 338.135 120.344 337.516 120.344C336.88 120.344 336.38 120.484 336.016 120.766C335.651 121.042 335.396 121.339 335.25 121.656L333.969 121.203C334.198 120.672 334.503 120.258 334.883 119.961C335.268 119.664 335.685 119.456 336.133 119.336C336.586 119.216 337.031 119.156 337.469 119.156C337.75 119.156 338.073 119.19 338.438 119.258C338.802 119.32 339.156 119.456 339.5 119.664C339.849 119.867 340.135 120.177 340.359 120.594C340.589 121.005 340.703 121.557 340.703 122.25V128H339.359V126.812H339.297C339.208 127 339.057 127.203 338.844 127.422C338.63 127.635 338.346 127.82 337.992 127.977C337.643 128.128 337.214 128.203 336.703 128.203ZM336.906 127C337.438 127 337.885 126.896 338.25 126.688C338.615 126.479 338.891 126.211 339.078 125.883C339.266 125.549 339.359 125.203 339.359 124.844V123.609C339.302 123.677 339.177 123.74 338.984 123.797C338.797 123.849 338.578 123.896 338.328 123.938C338.083 123.979 337.844 124.016 337.609 124.047C337.375 124.073 337.188 124.094 337.047 124.109C336.698 124.156 336.372 124.232 336.07 124.336C335.768 124.435 335.523 124.583 335.336 124.781C335.154 124.979 335.062 125.25 335.062 125.594C335.062 126.057 335.234 126.409 335.578 126.648C335.927 126.883 336.37 127 336.906 127Z" fill="#F3F4F6"/>
</svg>
