<svg width="24" height="24" viewBox="0 0 24 24" fill="none" xmlns="http://www.w3.org/2000/svg">
<rect width="24" height="24" rx="12" fill="#F6F8FC"/>
<g clip-path="url(#clip0_2260_4313)">
<g clip-path="url(#clip1_2260_4313)">
<g clip-path="url(#clip2_2260_4313)">
<path fill-rule="evenodd" clip-rule="evenodd" d="M15.3412 9.66669C15.8016 9.66669 16.1748 9.31326 16.1748 8.87727C16.1748 8.44128 15.8016 8.08785 15.3412 8.08785C14.8808 8.08785 14.5076 8.44128 14.5076 8.87727C14.5076 9.31326 14.8808 9.66669 15.3412 9.66669ZM15.3412 11.088C16.6305 11.088 17.6758 10.0982 17.6758 8.87727C17.6758 7.6563 16.6305 6.6665 15.3412 6.6665C14.0519 6.6665 13.0066 7.6563 13.0066 8.87727C13.0066 8.9906 13.0156 9.10194 13.033 9.21068L9.5573 11.0124C9.14542 10.6671 8.60374 10.4575 8.01037 10.4575C6.72101 10.4575 5.67578 11.4473 5.67578 12.6682C5.67578 13.8892 6.72101 14.879 8.01037 14.879C8.61251 14.879 9.1614 14.6631 9.57546 14.3087L13.0382 16.0911C13.0174 16.2098 13.0066 16.3315 13.0066 16.4557C13.0066 17.6767 14.0519 18.6665 15.3412 18.6665C16.6305 18.6665 17.6758 17.6767 17.6758 16.4557C17.6758 15.2347 16.6305 14.2449 15.3412 14.2449C14.7257 14.2449 14.1657 14.4705 13.7487 14.8391L10.307 13.0674C10.3319 12.938 10.345 12.8045 10.345 12.6682C10.345 12.524 10.3304 12.383 10.3025 12.2465L13.7248 10.4724C14.1442 10.8537 14.7138 11.088 15.3412 11.088ZM15.3412 17.2452C15.8016 17.2452 16.1748 16.8917 16.1748 16.4557C16.1748 16.0198 15.8016 15.6663 15.3412 15.6663C14.8808 15.6663 14.5076 16.0198 14.5076 16.4557C14.5076 16.8917 14.8808 17.2452 15.3412 17.2452ZM8.84401 12.6682C8.84401 13.1042 8.47077 13.4576 8.01037 13.4576C7.54996 13.4576 7.17674 13.1042 7.17674 12.6682C7.17674 12.2322 7.54996 11.8788 8.01037 11.8788C8.47077 11.8788 8.84401 12.2322 8.84401 12.6682Z" fill="#1F2937"/>
</g>
</g>
</g>
<defs>
<clipPath id="clip0_2260_4313">
<rect width="16" height="16" fill="white" transform="translate(4 4)"/>
</clipPath>
<clipPath id="clip1_2260_4313">
<rect width="16" height="16" fill="white" transform="translate(4 4)"/>
</clipPath>
<clipPath id="clip2_2260_4313">
<rect width="16" height="16" fill="white" transform="translate(4 4)"/>
</clipPath>
</defs>
</svg>
