<svg width="648" height="32" viewBox="0 0 648 32" fill="none" xmlns="http://www.w3.org/2000/svg">
<rect y="15" width="555" height="2" fill="#D9D9D9"/>
<rect y="15" width="173.438" height="2" fill="#1F2937"/>
<path fill-rule="evenodd" clip-rule="evenodd" d="M595 28.0002C601.627 28.0002 607 22.6277 607 16.0002C606.9 9.41016 601.578 4.09395 594.988 4.00024C588.361 4.00356 582.991 9.37883 582.994 16.0062C582.997 22.6337 588.373 28.0036 595 28.0002Z" fill="#F4F6FB" fill-opacity="0.8"/>
<path d="M595.984 12.6998L592.683 15.9998L595.984 19.2998" stroke="#1F2937" stroke-width="1.5" stroke-linecap="round" stroke-linejoin="round"/>
<path fill-rule="evenodd" clip-rule="evenodd" d="M632 28.0002C625.373 28.0002 620 22.6277 620 16.0002C620.1 9.41016 625.422 4.09395 632.012 4.00024C638.639 4.00356 644.009 9.37883 644.006 16.0062C644.003 22.6337 638.627 28.0036 632 28.0002Z" fill="#F4F6FB" fill-opacity="0.8"/>
<path d="M631.016 12.6998L634.317 15.9998L631.016 19.2998" stroke="#1F2937" stroke-width="1.5" stroke-linecap="round" stroke-linejoin="round"/>
</svg>
