<svg width="32" height="32" viewBox="0 0 32 32" fill="none" xmlns="http://www.w3.org/2000/svg">
<rect width="32" height="32" rx="16" fill="#F6F8FC"/>
<g clip-path="url(#clip0_2260_4291)">
<path fill-rule="evenodd" clip-rule="evenodd" d="M16 10.3131C15.099 10.3131 14.218 10.5821 13.469 11.0881C12.7165 11.5963 12.1313 12.3158 11.787 13.1561C11.4409 14.0004 11.3504 14.9278 11.527 15.8231C11.7024 16.7159 12.1372 17.5371 12.777 18.1841L12.779 18.1851L15.999 21.4521L19.219 18.1851L19.221 18.1841C19.8608 17.5371 20.2956 16.7159 20.471 15.8231C20.6475 14.9278 20.5571 14.0004 20.211 13.1561C19.8671 12.3159 19.2822 11.5963 18.53 11.0881C17.7829 10.583 16.9018 10.3138 16 10.3131ZM12.63 9.84305C13.6254 9.1719 14.7986 8.81342 15.9991 8.8136C17.1997 8.81378 18.3728 9.1726 19.368 9.84405C20.3657 10.5179 21.1416 11.472 21.598 12.5861C22.0562 13.7025 22.1761 14.929 21.943 16.1131C21.7104 17.2952 21.1344 18.3826 20.287 19.2391L15.999 23.5891L11.712 19.2391H11.71C10.8629 18.3825 10.2872 17.2951 10.055 16.1131C9.82179 14.929 9.94177 13.7025 10.4 12.5861C10.8565 11.472 11.6324 10.517 12.63 9.84305ZM16 13.4591C15.201 13.4591 14.542 14.1141 14.542 14.9371C14.542 15.7591 15.202 16.4141 15.999 16.4141C16.797 16.4141 17.456 15.7591 17.456 14.9371C17.456 14.1141 16.798 13.4591 16 13.4591ZM13.041 14.9361C13.042 13.2981 14.36 11.9581 16 11.9581C17.64 11.9581 18.957 13.2981 18.957 14.9361C18.957 16.5731 17.64 17.9131 16 17.9131C14.36 17.9131 13.043 16.5731 13.043 14.9361H13.041Z" fill="#10B981"/>
</g>
<defs>
<clipPath id="clip0_2260_4291">
<rect width="16" height="16" fill="white" transform="translate(8 8)"/>
</clipPath>
</defs>
</svg>
