<svg width="111" height="84" viewBox="0 0 111 84" fill="none" xmlns="http://www.w3.org/2000/svg">
<g clip-path="url(#clip0_2260_4142)">
<path d="M54.0268 0.658386C54.3368 0.640635 54.6454 0.607866 54.9553 0.607866C64.3234 0.606501 73.6916 0.611962 83.0597 0.60377C85.1242 0.602404 87.1764 0.738945 89.2123 1.0803C91.6796 1.49539 94.0486 2.21906 96.2565 3.41653C98.3333 4.543 100.127 6.00809 101.569 7.88691C103.167 9.96917 104.108 12.3204 104.445 14.9202C104.571 15.8869 104.65 16.8536 104.613 17.8271C104.554 19.4261 104.323 20.9976 103.829 22.5242C103.019 25.0256 101.593 27.1202 99.6536 28.8788C98.7006 29.7445 97.6547 30.4846 96.5569 31.1509C96.2592 31.3311 95.9615 31.5127 95.6653 31.6957C95.6339 31.7148 95.5902 31.7735 95.597 31.7831C95.6393 31.8459 95.683 31.9264 95.7458 31.9551C96.0285 32.0821 96.3152 32.1995 96.6047 32.3088C97.8431 32.7757 99.0351 33.3397 100.182 34.0005C101.535 34.7802 102.785 35.6977 103.895 36.7996C106.087 38.9761 107.443 41.5881 107.953 44.633C108.38 47.1918 108.323 49.7397 107.723 52.2712C107.001 55.3174 105.451 57.8639 103.105 59.9284C101.546 61.3007 99.7861 62.3548 97.8882 63.189C95.9233 64.0534 93.8752 64.6391 91.7656 65.0242C89.1577 65.5007 86.5265 65.6878 83.8776 65.6864C75.0147 65.685 66.1517 65.6864 57.2888 65.6864C56.4723 65.6864 55.6558 65.6905 54.8393 65.6837C54.5689 65.6809 54.2986 65.6495 54.0282 65.6318C54.0255 65.1675 54.0186 64.7019 54.0186 64.2377C54.0159 61.3717 54.0145 58.5057 54.0132 55.641C54.162 55.6055 54.3108 55.5427 54.4597 55.5386C55.1588 55.5168 55.8592 55.5045 56.5583 55.5017C59.823 55.4867 63.0877 55.4854 66.3525 55.5099C72.1842 55.5536 78.0159 55.525 83.8462 55.5195C84.6627 55.5181 85.4792 55.4922 86.2944 55.454C87.6994 55.3884 89.073 55.1263 90.4125 54.7084C91.6441 54.3234 92.7965 53.769 93.8219 52.9716C95.1901 51.908 96.0844 50.5398 96.5091 48.8563C96.7794 47.7858 96.8177 46.7044 96.748 45.6148C96.5814 43.0191 95.3853 41.042 93.1529 39.6984C92.3828 39.2355 91.5608 38.8942 90.7047 38.6252C88.9119 38.0599 87.0645 37.8319 85.198 37.7349C84.3828 37.6926 83.5663 37.7049 82.7498 37.7035C80.9611 37.6994 79.1737 37.6953 77.385 37.7063C77.041 37.7076 76.7829 37.5998 76.5958 37.3144C76.5535 37.2502 76.4975 37.1942 76.4511 37.1314C74.3251 34.3036 72.2006 31.4759 70.076 28.6481C70.0063 28.5552 69.9517 28.4515 69.8916 28.3531C69.8493 28.2835 69.9531 28.091 70.0364 28.0869C70.3449 28.0705 70.6549 28.0405 70.9635 28.0391C73.8787 28.035 76.7952 28.0323 79.7103 28.0391C80.8 28.0418 81.8855 27.9981 82.9737 27.9367C84.1043 27.8725 85.213 27.6718 86.2999 27.3741C87.7718 26.97 89.1495 26.3528 90.3551 25.3902C91.5117 24.4658 92.3241 23.3038 92.7555 21.8879C93.2171 20.375 93.3195 18.8403 93.0041 17.281C92.7515 16.0316 92.223 14.9284 91.3669 13.9835C90.7061 13.2557 89.9305 12.6809 89.0621 12.2235C88.0216 11.6773 86.9129 11.3319 85.7646 11.1025C84.3473 10.8198 82.9123 10.7379 81.4731 10.7352C76.7692 10.727 72.0654 10.7324 67.3615 10.7324C66.9341 10.7324 66.5068 10.7297 66.078 10.7338C65.9237 10.7352 65.7681 10.7488 65.6138 10.7611C65.469 10.772 65.3093 10.9195 65.3025 11.0547C65.2902 11.3264 65.2765 11.5967 65.2765 11.8685C65.2751 14.6676 65.2751 17.4667 65.2751 20.2658C65.2751 20.5771 65.2751 20.8884 65.2738 21.1984C65.2738 21.3144 65.2697 21.4319 65.2656 21.5479C65.2601 21.6913 65.1564 21.8387 65.0867 21.8032C65.0239 21.7718 64.942 21.7527 64.9038 21.7008C64.1774 20.7396 63.4387 19.7879 62.7355 18.8089C60.1289 15.1769 57.536 11.5367 54.9376 7.89919C54.7573 7.64659 54.5921 7.38034 54.3955 7.14139C54.3027 7.02806 54.1511 6.96116 54.0268 6.87377C54.0282 4.8038 54.0282 2.73109 54.0268 0.658386Z" fill="white"/>
<path d="M54.0168 55.6437C54.0182 58.5098 54.0196 61.3758 54.0223 64.2404C54.0223 64.7047 54.0291 65.1703 54.0319 65.6345C53.5676 65.6523 53.102 65.6864 52.6364 65.6864C40.8146 65.6891 28.9928 65.6891 17.171 65.6891C12.4658 65.6891 7.76059 65.6905 3.05536 65.6864C2.70718 65.6864 2.359 65.6604 2.01082 65.6304C1.9521 65.6249 1.87427 65.5403 1.85243 65.4747C1.81556 65.3669 1.80191 65.2467 1.80191 65.132C1.79918 62.6429 1.8019 60.1537 1.79371 57.6659C1.79235 57.33 1.92479 57.0733 2.13097 56.8262C3.14957 55.6001 4.16271 54.3685 5.17722 53.1396C16.4201 39.5291 27.6629 25.9173 38.9044 12.3068C39.2266 11.9176 39.542 11.523 39.8534 11.1257C39.893 11.0752 39.9093 10.9864 39.8998 10.9195C39.8793 10.7734 39.7428 10.7652 39.6363 10.7611C39.2471 10.7488 38.8593 10.7461 38.4702 10.7461C31.8206 10.7447 25.171 10.7461 18.5214 10.7461C13.7766 10.7461 9.03316 10.7475 4.28833 10.7447C3.94015 10.7447 3.5906 10.7229 3.24242 10.6942C3.18234 10.6888 3.12363 10.6027 3.07447 10.5454C3.05263 10.5194 3.0499 10.4717 3.04717 10.4334C3.03624 10.2791 3.01986 10.1235 3.01986 9.96918C3.01849 7.13048 3.01849 4.29178 3.01986 1.45171C3.01986 1.25782 3.02396 1.0612 3.05946 0.871409C3.07857 0.767638 3.14548 0.654309 3.28748 0.64202C3.40354 0.632463 3.51823 0.61198 3.63293 0.610614C3.94424 0.606518 4.25556 0.607885 4.56688 0.607885C20.5887 0.607885 36.6105 0.607884 52.6309 0.610614C53.0965 0.610614 53.5608 0.642021 54.0264 0.659772C54.0264 2.73247 54.0278 4.80381 54.0278 6.87651C53.1621 8.39895 52.153 9.82991 51.1454 11.2568C47.8042 15.9893 44.3729 20.6549 40.8092 25.2236C38.2749 28.4733 35.7503 31.7298 33.1997 34.9659C29.6865 39.424 26.1623 43.8725 22.6204 48.3087C20.971 50.3746 19.2697 52.3982 17.5943 54.4435C17.3731 54.7139 17.1642 54.9952 16.9649 55.2805C16.9444 55.3106 17.0154 55.4621 17.0536 55.4649C17.4004 55.4963 17.7486 55.5222 18.0968 55.5236C26.0667 55.5495 34.0367 55.5782 42.0066 55.5946C45.7779 55.6028 49.5492 55.5891 53.3205 55.5891C53.554 55.5891 53.7861 55.6246 54.0168 55.6437Z" fill="#10B981"/>
<path d="M59.9995 43.8267C58.8266 43.8267 57.6537 43.8281 56.4808 43.8254C56.2842 43.8254 56.1313 43.6684 56.119 43.469C56.1094 43.3188 56.1012 43.1672 56.1012 43.0157C56.0999 41.1997 56.0999 39.3823 56.1026 37.5663C56.1026 37.3792 56.104 37.1854 56.149 37.0065C56.1709 36.9205 56.2897 36.8372 56.3839 36.7989C56.4836 36.758 56.6051 36.7621 56.717 36.7621C58.9113 36.7607 61.1068 36.7593 63.3011 36.7621C63.4513 36.7621 63.6042 36.7785 63.7489 36.8126C63.8104 36.8276 63.8718 36.8986 63.906 36.9601C63.9401 37.0215 63.9496 37.1034 63.9496 37.1758C63.9524 39.2567 63.9524 41.3376 63.951 43.4198C63.951 43.4567 63.936 43.4936 63.9319 43.5318C63.9196 43.6684 63.7776 43.809 63.6301 43.8117C63.0253 43.8213 62.4204 43.8295 61.8155 43.8336C61.2106 43.8377 60.6044 43.8349 59.9995 43.8349C59.9995 43.8322 59.9995 43.8295 59.9995 43.8267Z" fill="white"/>
<path d="M49.9863 35.2078C48.9254 35.2078 47.8645 35.2091 46.8036 35.205C46.6547 35.205 46.5032 35.1873 46.3598 35.1504C46.2997 35.1354 46.2273 35.0603 46.211 34.9988C46.1755 34.8541 46.155 34.7012 46.1536 34.551C46.1495 32.6572 46.1509 30.762 46.1522 28.8681C46.1522 28.7548 46.1632 28.6415 46.1714 28.5295C46.1823 28.3943 46.3311 28.225 46.4499 28.2168C46.6015 28.2073 46.7517 28.1963 46.9032 28.1963C49.0251 28.195 51.1456 28.195 53.2675 28.1963C53.4176 28.1963 53.5733 28.1977 53.718 28.2318C53.8218 28.2564 53.9174 28.3342 53.9338 28.4612C53.9474 28.5732 53.9665 28.6865 53.9665 28.7985C53.9679 30.7305 53.9679 32.6626 53.9665 34.5947C53.9665 34.708 53.9502 34.8213 53.9392 34.9333C53.9256 35.0603 53.8341 35.1477 53.7303 35.1668C53.546 35.2009 53.3548 35.2037 53.165 35.2037C52.1082 35.2091 51.0473 35.2078 49.9863 35.2078Z" fill="white"/>
<path d="M59.8557 35.2096C58.8329 35.2096 57.8103 35.211 56.7862 35.2083C56.5978 35.2069 56.408 35.1946 56.2223 35.1632C56.1622 35.1523 56.0775 35.0717 56.0666 35.0117C56.0352 34.826 56.0229 34.6362 56.0216 34.4477C56.0188 32.629 56.0188 30.8103 56.0202 28.9915C56.0202 28.84 56.0284 28.6884 56.0366 28.5382C56.0475 28.3443 56.1963 28.2146 56.4162 28.2051C56.5295 28.1996 56.6428 28.1969 56.7575 28.1969C58.8794 28.1969 61.0012 28.1955 63.1231 28.1982C63.2719 28.1982 63.4249 28.2119 63.5696 28.2474C63.6297 28.2624 63.6884 28.3389 63.7198 28.4017C63.7526 28.4659 63.7649 28.5478 63.7649 28.6215C63.7676 30.6683 63.7676 32.7137 63.7662 34.7604C63.7662 34.8355 63.769 34.927 63.7294 34.9803C63.6693 35.0635 63.5792 35.1673 63.4904 35.1782C63.2282 35.211 62.962 35.2069 62.6971 35.2069C61.7495 35.211 60.8033 35.2096 59.8557 35.2096Z" fill="#10B981"/>
<path d="M50.0607 36.7621C51.1571 36.7621 52.2535 36.7607 53.3486 36.7634C53.4988 36.7634 53.6517 36.7757 53.7965 36.8112C53.8565 36.8262 53.9235 36.9095 53.9412 36.9751C53.9712 37.0816 53.9699 37.199 53.9699 37.3123C53.9712 39.2785 53.9726 41.2434 53.9712 43.2096C53.9712 43.3229 53.9549 43.4349 53.9453 43.5482C53.9344 43.6806 53.7869 43.809 53.6367 43.8185C53.5616 43.8226 53.4865 43.8322 53.4114 43.8322C51.1817 43.8336 48.952 43.8336 46.7209 43.8322C46.6458 43.8322 46.5707 43.8254 46.4942 43.8199C46.344 43.8104 46.1979 43.6834 46.1829 43.5496C46.1706 43.4376 46.1515 43.3256 46.1515 43.2137C46.1501 41.2475 46.1515 39.2826 46.1515 37.3164C46.1515 37.2782 46.1528 37.2413 46.1542 37.2031C46.1651 36.8986 46.2703 36.7771 46.5434 36.7716C46.8834 36.7634 47.2233 36.7634 47.5633 36.7621C48.3976 36.7593 49.2291 36.7607 50.0607 36.7621C50.0607 36.7607 50.0607 36.7607 50.0607 36.7621Z" fill="#10B981"/>
<path d="M2.09692 81.6441V80.6228L6.73388 75.0095H2.24302V73.7861H8.5294V74.8075L3.89245 80.4207H8.5294V81.6441H2.09692Z" fill="white"/>
<path d="M21.5223 81.7789C20.6538 81.7789 19.9302 81.4908 19.3499 80.9146C18.7696 80.3384 18.4801 79.5942 18.4801 78.6807C18.4801 77.8205 18.7532 77.09 19.2994 76.492C19.8455 75.8939 20.5378 75.5935 21.3762 75.5935C22.2746 75.5935 22.9723 75.898 23.4693 76.5083C23.9663 77.1187 24.2162 77.8765 24.2162 78.7818C24.2162 78.947 24.208 79.074 24.1944 79.1641H19.8387C19.9138 79.6352 20.1049 80.0038 20.4108 80.2701C20.718 80.5363 21.0962 80.6688 21.5441 80.6688C22.1285 80.6688 22.6624 80.4326 23.1498 79.9615L23.9472 80.6688C23.3342 81.4075 22.5258 81.7789 21.5223 81.7789ZM19.8278 78.2643H22.8699C22.8249 77.8082 22.6719 77.4341 22.4098 77.1419C22.1476 76.8497 21.7994 76.7036 21.3652 76.7036C20.9529 76.7036 20.6088 76.8483 20.333 77.1364C20.0558 77.4245 19.8865 77.8 19.8278 78.2643Z" fill="white"/>
<path d="M34.5695 81.6437V75.7164H35.928V76.6148C36.4223 75.9335 37.0245 75.5935 37.7359 75.5935C38.5592 75.5935 39.1463 75.9417 39.4986 76.6381C40.0298 75.9417 40.7002 75.5935 41.5085 75.5935C42.1598 75.5935 42.6691 75.7915 43.035 76.1888C43.4023 76.5862 43.5853 77.1433 43.5853 77.8615V81.6451H42.2267V78.2766C42.2267 77.8055 42.1216 77.4464 41.9127 77.1992C41.7024 76.9521 41.4075 76.8292 41.0252 76.8292C40.6428 76.8292 40.337 76.9589 40.1049 77.217C39.8727 77.4751 39.7567 77.8369 39.7567 78.2998V81.6451H38.3981V78.2656C38.3981 77.8096 38.293 77.4559 38.084 77.2047C37.8738 76.9535 37.5788 76.8292 37.1965 76.8292C36.8142 76.8292 36.5084 76.9617 36.2762 77.2279C36.0441 77.4942 35.928 77.8546 35.928 78.3107V81.6451H34.5695V81.6437Z" fill="white"/>
<path d="M54.3671 81.6441V73.7861H57.8925C58.7978 73.7861 59.4832 74.0183 59.9475 74.4825C60.2998 74.8348 60.4745 75.2758 60.4745 75.807C60.4745 76.5852 60.1004 77.1696 59.3522 77.5588C60.3926 77.911 60.9128 78.5542 60.9128 79.4895C60.9128 80.1776 60.6507 80.7088 60.1263 81.0829C59.602 81.457 58.8947 81.6441 58.0045 81.6441H54.3671ZM55.7256 77.0973H57.6113C58.0673 77.0973 58.4292 77.0058 58.694 76.8228C58.9603 76.6398 59.0927 76.3681 59.0927 76.009C59.0927 75.695 58.9726 75.4492 58.7336 75.2744C58.4947 75.0983 58.1533 75.0109 57.7123 75.0109H55.7256V77.0973ZM55.7256 80.4207H58.0154C58.4947 80.4207 58.8661 80.3278 59.1323 80.1394C59.3986 79.9523 59.531 79.6793 59.531 79.3202C59.531 78.617 58.9917 78.2647 57.9144 78.2647H55.7256V80.4207Z" fill="#10B981"/>
<path d="M74.0153 81.7789C73.1469 81.7789 72.4232 81.4908 71.8429 80.9146C71.2626 80.3384 70.9731 79.5942 70.9731 78.6807C70.9731 77.8205 71.2462 77.09 71.7924 76.492C72.3386 75.8939 73.0308 75.5935 73.8692 75.5935C74.7676 75.5935 75.4654 75.898 75.9624 76.5083C76.4594 77.1187 76.7093 77.8765 76.7093 78.7818C76.7093 78.947 76.7024 79.074 76.6874 79.1641H72.3317C72.4068 79.6352 72.5966 80.0038 72.9038 80.2701C73.2111 80.5363 73.5879 80.6688 74.0371 80.6688C74.6215 80.6688 75.1554 80.4326 75.6429 79.9615L76.4403 80.6688C75.8258 81.4075 75.0175 81.7789 74.0153 81.7789ZM72.3194 78.2643H75.3616C75.3165 77.8082 75.1636 77.4341 74.9015 77.1419C74.6393 76.8497 74.2911 76.7036 73.8569 76.7036C73.4459 76.7036 73.1005 76.8483 72.8247 77.1364C72.5475 77.4245 72.3795 77.8 72.3194 78.2643Z" fill="#10B981"/>
<path d="M87.0625 81.6444V75.7171H88.4211V77.0525C88.8403 76.0421 89.5394 75.5601 90.5211 75.6038V77.0402H90.4419C89.8275 77.0402 89.3373 77.2409 88.9714 77.641C88.6041 78.0411 88.4211 78.6227 88.4211 79.3874V81.6444H87.0625Z" fill="#10B981"/>
<path d="M101.896 83.4734C101.402 83.4734 100.935 83.3532 100.492 83.1143L100.953 82.1039C101.23 82.2541 101.495 82.3278 101.75 82.3278C101.944 82.3278 102.105 82.2773 102.233 82.1762C102.36 82.0752 102.481 81.8977 102.592 81.6424L100.122 75.7151H101.571L103.255 80.1158L104.792 75.7151H106.207L103.849 81.8117C103.61 82.4179 103.343 82.8467 103.051 83.0965C102.76 83.3478 102.375 83.4734 101.896 83.4734Z" fill="#10B981"/>
</g>
<defs>
<clipPath id="clip0_2260_4142">
<rect width="110.667" height="83" fill="white" transform="translate(0 0.5)"/>
</clipPath>
</defs>
</svg>
