<svg width="86" height="64" viewBox="0 0 86 64" fill="none" xmlns="http://www.w3.org/2000/svg">
<path d="M41.6695 0.121223C41.9085 0.107536 42.1464 0.0822678 42.3854 0.0822678C49.609 0.081215 56.8326 0.0854265 64.0563 0.0791094C65.6482 0.0780565 67.2306 0.183341 68.8004 0.446554C70.7029 0.766621 72.5296 1.32463 74.2321 2.24799C75.8335 3.11659 77.2169 4.2463 78.3287 5.69502C79.5606 7.30062 80.286 9.11363 80.546 11.1183C80.6429 11.8637 80.704 12.6091 80.6755 13.3598C80.6303 14.5927 80.4523 15.8045 80.0712 16.9816C79.4469 18.9104 78.3466 20.5255 76.8516 21.8816C76.1167 22.5491 75.3102 23.1197 74.4637 23.6335C74.2342 23.7725 74.0047 23.9125 73.7762 24.0536C73.752 24.0683 73.7183 24.1136 73.7236 24.121C73.7562 24.1694 73.7899 24.2315 73.8383 24.2536C74.0563 24.3516 74.2774 24.4421 74.5006 24.5263C75.4555 24.8864 76.3746 25.3212 77.259 25.8308C78.3024 26.432 79.2658 27.1395 80.1217 27.9892C81.8126 29.6674 82.8581 31.6815 83.2508 34.0294C83.5804 36.0024 83.5361 37.967 83.0739 39.919C82.517 42.2679 81.322 44.2315 79.5132 45.8234C78.3108 46.8815 76.9537 47.6943 75.4902 48.3376C73.9752 49.0041 72.3959 49.4558 70.7692 49.7527C68.7583 50.1201 66.7295 50.2644 64.6869 50.2633C57.8529 50.2623 51.0188 50.2633 44.1847 50.2633C43.5551 50.2633 42.9255 50.2665 42.2959 50.2612C42.0874 50.2591 41.879 50.2349 41.6705 50.2212C41.6684 49.8632 41.6631 49.5042 41.6631 49.1462C41.661 46.9363 41.66 44.7264 41.6589 42.5175C41.7737 42.4901 41.8885 42.4417 42.0032 42.4385C42.5423 42.4217 43.0824 42.4122 43.6215 42.4101C46.1388 42.3985 48.6562 42.3974 51.1736 42.4164C55.6703 42.4501 60.167 42.428 64.6627 42.4238C65.2923 42.4227 65.9219 42.4027 66.5505 42.3732C67.6339 42.3227 68.693 42.1205 69.7259 41.7984C70.6755 41.5015 71.5642 41.074 72.3548 40.4591C73.4098 39.639 74.0994 38.584 74.4269 37.2859C74.6353 36.4604 74.6648 35.6266 74.6111 34.7864C74.4827 32.7849 73.5604 31.2604 71.8389 30.2244C71.2451 29.8675 70.6113 29.6042 69.9512 29.3968C68.5688 28.9609 67.1443 28.7851 65.705 28.7104C65.0765 28.6777 64.4469 28.6872 63.8173 28.6862C62.438 28.683 61.0598 28.6798 59.6806 28.6883C59.4153 28.6893 59.2163 28.6061 59.0721 28.3861C59.0394 28.3366 58.9963 28.2934 58.9605 28.245C57.3212 26.0646 55.6829 23.8841 54.0447 21.7036C53.991 21.632 53.9489 21.552 53.9026 21.4762C53.8699 21.4225 53.9499 21.2741 54.0142 21.2709C54.2521 21.2583 54.4911 21.2351 54.729 21.2341C56.9769 21.2309 59.2258 21.2288 61.4736 21.2341C62.3138 21.2362 63.1508 21.2025 63.9899 21.1551C64.8617 21.1056 65.7166 20.9508 66.5547 20.7213C67.6897 20.4097 68.752 19.9338 69.6817 19.1915C70.5734 18.4788 71.1999 17.5828 71.5326 16.491C71.8884 15.3244 71.9674 14.141 71.7242 12.9386C71.5294 11.9753 71.122 11.1246 70.4618 10.396C69.9522 9.83484 69.3542 9.39159 68.6846 9.03888C67.8823 8.61774 67.0274 8.35137 66.142 8.17449C65.0491 7.95655 63.9426 7.89338 62.8328 7.89127C59.2058 7.88496 55.5787 7.88917 51.9516 7.88917C51.6221 7.88917 51.2925 7.88706 50.9619 7.89022C50.843 7.89127 50.7229 7.9018 50.604 7.91128C50.4924 7.9197 50.3692 8.03341 50.3639 8.13764C50.3544 8.34716 50.3439 8.55562 50.3439 8.76514C50.3429 10.9235 50.3429 13.0818 50.3429 15.2402C50.3429 15.4802 50.3429 15.7203 50.3418 15.9593C50.3418 16.0488 50.3386 16.1393 50.3355 16.2288C50.3313 16.3394 50.2513 16.4531 50.1976 16.4257C50.1491 16.4015 50.086 16.3867 50.0565 16.3467C49.4964 15.6055 48.9268 14.8717 48.3846 14.1168C46.3747 11.3162 44.3753 8.5093 42.3717 5.7045C42.2327 5.50972 42.1053 5.30441 41.9537 5.12017C41.8821 5.03278 41.7653 4.98119 41.6695 4.91381C41.6705 3.31768 41.6705 1.71945 41.6695 0.121223Z" fill="white"/>
<path d="M41.6599 42.5195C41.661 44.7294 41.662 46.9394 41.6641 49.1482C41.6641 49.5062 41.6694 49.8652 41.6715 50.2232C41.3135 50.2369 40.9545 50.2632 40.5955 50.2632C31.4799 50.2653 22.3643 50.2653 13.2487 50.2653C9.62058 50.2653 5.99245 50.2664 2.36432 50.2632C2.09585 50.2632 1.82737 50.2432 1.55889 50.22C1.51362 50.2158 1.45361 50.1506 1.43676 50.1C1.40834 50.0168 1.39781 49.9242 1.39781 49.8358C1.3957 47.9164 1.3978 45.9971 1.39149 44.0788C1.39043 43.8198 1.49256 43.6218 1.65154 43.4313C2.43697 42.4858 3.21819 41.5361 4.00046 40.5886C12.6696 30.0937 21.3388 19.5979 30.007 9.10303C30.2554 8.80297 30.4986 8.49869 30.7387 8.19231C30.7692 8.15336 30.7819 8.08492 30.7745 8.03333C30.7587 7.92068 30.6534 7.91436 30.5713 7.9112C30.2712 7.90173 29.9722 7.89962 29.6721 7.89962C24.5448 7.89857 19.4174 7.89962 14.29 7.89962C10.6313 7.89962 6.97371 7.90067 3.31505 7.89857C3.04657 7.89857 2.77704 7.88172 2.50857 7.85961C2.46224 7.8554 2.41697 7.78907 2.37906 7.74485C2.36222 7.72485 2.36011 7.688 2.35801 7.65852C2.34959 7.53955 2.33695 7.41952 2.33695 7.30055C2.3359 5.11167 2.3359 2.92279 2.33695 0.732862C2.33695 0.583357 2.34011 0.431746 2.36748 0.2854C2.38222 0.205383 2.43381 0.117997 2.54331 0.108521C2.6328 0.101151 2.72124 0.0853575 2.80968 0.0843047C3.04973 0.0811461 3.28978 0.0822001 3.52983 0.0822001C15.884 0.0822001 28.2382 0.082199 40.5913 0.0843047C40.9503 0.0843047 41.3083 0.108522 41.6673 0.122209C41.6673 1.72044 41.6683 3.31761 41.6683 4.91584C41.0008 6.08977 40.2228 7.19316 39.4458 8.29339C36.8694 11.9426 34.2236 15.5402 31.4757 19.063C29.5216 21.5688 27.5749 24.0798 25.6081 26.5751C22.8992 30.0127 20.1817 33.4429 17.4506 36.8636C16.1788 38.4565 14.8669 40.0169 13.5751 41.594C13.4045 41.8025 13.2434 42.0194 13.0897 42.2394C13.0739 42.2626 13.1287 42.3795 13.1582 42.3816C13.4256 42.4058 13.6941 42.4258 13.9625 42.4268C20.108 42.4468 26.2535 42.4689 32.399 42.4816C35.307 42.4879 38.215 42.4774 41.123 42.4774C41.303 42.4774 41.482 42.5047 41.6599 42.5195Z" fill="#10B981"/>
<path d="M46.2756 33.4072C45.3712 33.4072 44.4668 33.4082 43.5624 33.4061C43.4108 33.4061 43.2929 33.285 43.2834 33.1313C43.2761 33.0155 43.2697 32.8986 43.2697 32.7818C43.2687 31.3815 43.2687 29.9801 43.2708 28.5798C43.2708 28.4356 43.2718 28.2861 43.3066 28.1482C43.3234 28.0818 43.415 28.0176 43.4877 27.9881C43.5645 27.9566 43.6582 27.9597 43.7446 27.9597C45.4365 27.9587 47.1295 27.9576 48.8214 27.9597C48.9372 27.9597 49.0552 27.9723 49.1668 27.9987C49.2141 28.0102 49.2615 28.065 49.2878 28.1124C49.3142 28.1598 49.3215 28.2229 49.3215 28.2787C49.3236 29.8833 49.3236 31.4878 49.3226 33.0934C49.3226 33.1218 49.311 33.1503 49.3078 33.1798C49.2984 33.285 49.1889 33.3935 49.0752 33.3956C48.6087 33.403 48.1423 33.4093 47.6759 33.4124C47.2095 33.4156 46.742 33.4135 46.2756 33.4135C46.2756 33.4114 46.2756 33.4093 46.2756 33.4072Z" fill="white"/>
<path d="M38.5509 26.7614C37.7328 26.7614 36.9147 26.7625 36.0966 26.7593C35.9819 26.7593 35.865 26.7456 35.7545 26.7172C35.7081 26.7056 35.6523 26.6477 35.6397 26.6003C35.6123 26.4887 35.5965 26.3708 35.5955 26.255C35.5923 24.7947 35.5934 23.3333 35.5944 21.873C35.5944 21.7857 35.6029 21.6983 35.6092 21.6119C35.6176 21.5077 35.7324 21.3771 35.824 21.3708C35.9408 21.3635 36.0566 21.355 36.1735 21.355C37.8096 21.354 39.4447 21.354 41.0809 21.355C41.1967 21.355 41.3167 21.3561 41.4283 21.3824C41.5083 21.4014 41.582 21.4614 41.5947 21.5593C41.6052 21.6456 41.6199 21.733 41.6199 21.8193C41.621 23.3091 41.621 24.7989 41.6199 26.2887C41.6199 26.3761 41.6073 26.4635 41.5989 26.5498C41.5883 26.6477 41.5178 26.7151 41.4378 26.7298C41.2956 26.7562 41.1482 26.7583 41.0019 26.7583C40.187 26.7625 39.3689 26.7614 38.5509 26.7614Z" fill="white"/>
<path d="M46.163 26.7627C45.3744 26.7627 44.5858 26.7637 43.7962 26.7616C43.6509 26.7606 43.5045 26.7511 43.3613 26.7269C43.315 26.7185 43.2497 26.6563 43.2413 26.61C43.2171 26.4668 43.2076 26.3205 43.2066 26.1752C43.2045 24.7728 43.2045 23.3704 43.2055 21.968C43.2055 21.8511 43.2118 21.7343 43.2182 21.6185C43.2266 21.469 43.3413 21.3689 43.5108 21.3616C43.5982 21.3573 43.6856 21.3552 43.7741 21.3552C45.4102 21.3552 47.0463 21.3542 48.6825 21.3563C48.7972 21.3563 48.9152 21.3668 49.0268 21.3942C49.0731 21.4058 49.1184 21.4647 49.1426 21.5132C49.1679 21.5627 49.1773 21.6258 49.1773 21.6827C49.1794 23.2609 49.1794 24.8381 49.1784 26.4163C49.1784 26.4742 49.1805 26.5447 49.1499 26.5858C49.1036 26.65 49.0341 26.73 48.9657 26.7385C48.7636 26.7637 48.5582 26.7606 48.354 26.7606C47.6233 26.7637 46.8937 26.7627 46.163 26.7627Z" fill="#10B981"/>
<path d="M38.6077 27.9597C39.4531 27.9597 40.2986 27.9587 41.143 27.9608C41.2588 27.9608 41.3767 27.9702 41.4883 27.9976C41.5346 28.0092 41.5862 28.0734 41.5999 28.124C41.6231 28.2061 41.622 28.2966 41.622 28.384C41.6231 29.9001 41.6241 31.4152 41.6231 32.9313C41.6231 33.0187 41.6104 33.105 41.603 33.1924C41.5946 33.2945 41.4809 33.3935 41.3651 33.4008C41.3072 33.404 41.2493 33.4114 41.1914 33.4114C39.4721 33.4124 37.7528 33.4124 36.0324 33.4114C35.9745 33.4114 35.9166 33.4061 35.8576 33.4019C35.7418 33.3945 35.6292 33.2966 35.6176 33.1934C35.6081 33.1071 35.5934 33.0208 35.5934 32.9344C35.5923 31.4183 35.5934 29.9033 35.5934 28.3872C35.5934 28.3577 35.5944 28.3293 35.5955 28.2998C35.6039 28.065 35.685 27.9713 35.8955 27.9671C36.1577 27.9608 36.4199 27.9608 36.682 27.9597C37.3253 27.9576 37.9665 27.9587 38.6077 27.9597C38.6077 27.9587 38.6077 27.9587 38.6077 27.9597Z" fill="#10B981"/>
<path d="M1.6178 62.5689V61.7814L5.19328 57.4531H1.73045V56.5098H6.57778V57.2973L3.0023 61.6256H6.57778V62.5689H1.6178Z" fill="white"/>
<path d="M16.5936 62.6733C15.9239 62.6733 15.3659 62.4511 14.9185 62.0068C14.471 61.5625 14.2478 60.9887 14.2478 60.2843C14.2478 59.621 14.4584 59.0577 14.8795 58.5966C15.3007 58.1354 15.8344 57.9038 16.4809 57.9038C17.1737 57.9038 17.7117 58.1386 18.0949 58.6092C18.4782 59.0799 18.6708 59.6642 18.6708 60.3622C18.6708 60.4896 18.6645 60.5875 18.654 60.657H15.2954C15.3533 61.0203 15.5007 61.3045 15.7365 61.5098C15.9734 61.7152 16.2651 61.8173 16.6104 61.8173C17.061 61.8173 17.4727 61.6351 17.8486 61.2719L18.4634 61.8173C17.9907 62.3869 17.3674 62.6733 16.5936 62.6733ZM15.287 59.9632H17.6327C17.598 59.6115 17.4801 59.3231 17.2779 59.0978C17.0758 58.8724 16.8073 58.7598 16.4725 58.7598C16.1545 58.7598 15.8892 58.8714 15.6765 59.0935C15.4628 59.3157 15.3322 59.6052 15.287 59.9632Z" fill="white"/>
<path d="M26.6525 62.569V57.9986H27.7001V58.6913C28.0812 58.166 28.5455 57.9038 29.094 57.9038C29.7289 57.9038 30.1816 58.1723 30.4533 58.7092C30.8628 58.1723 31.3798 57.9038 32.0031 57.9038C32.5053 57.9038 32.898 58.0565 33.1801 58.3629C33.4634 58.6692 33.6044 59.0988 33.6044 59.6526V62.5701H32.5569V59.9727C32.5569 59.6094 32.4758 59.3325 32.3147 59.142C32.1526 58.9514 31.9251 58.8566 31.6304 58.8566C31.3356 58.8566 31.0997 58.9567 30.9207 59.1557C30.7417 59.3546 30.6523 59.6337 30.6523 59.9906V62.5701H29.6047V59.9642C29.6047 59.6126 29.5236 59.3399 29.3625 59.1462C29.2004 58.9525 28.973 58.8566 28.6782 58.8566C28.3834 58.8566 28.1475 58.9588 27.9685 59.1641C27.7895 59.3694 27.7001 59.6473 27.7001 59.999V62.5701H26.6525V62.569Z" fill="white"/>
<path d="M41.9231 62.5689V56.5098H44.6415C45.3396 56.5098 45.8681 56.6888 46.2261 57.0467C46.4977 57.3184 46.6325 57.6584 46.6325 58.068C46.6325 58.6681 46.344 59.1187 45.767 59.4188C46.5693 59.6904 46.9704 60.1863 46.9704 60.9075C46.9704 61.4382 46.7683 61.8477 46.364 62.1362C45.9597 62.4247 45.4143 62.5689 44.7279 62.5689H41.9231ZM42.9707 59.0629H44.4247C44.7763 59.0629 45.0553 58.9924 45.2596 58.8513C45.4649 58.7102 45.567 58.5007 45.567 58.2238C45.567 57.9817 45.4743 57.7921 45.2901 57.6574C45.1058 57.5216 44.8426 57.4542 44.5026 57.4542H42.9707V59.0629ZM42.9707 61.6256H44.7363C45.1058 61.6256 45.3922 61.554 45.5975 61.4087C45.8028 61.2644 45.905 61.0539 45.905 60.777C45.905 60.2347 45.4891 59.9631 44.6584 59.9631H42.9707V61.6256Z" fill="#10B981"/>
<path d="M57.0726 62.6733C56.4029 62.6733 55.8449 62.4511 55.3975 62.0068C54.95 61.5625 54.7268 60.9887 54.7268 60.2843C54.7268 59.621 54.9374 59.0577 55.3585 58.5966C55.7797 58.1354 56.3135 57.9038 56.9599 57.9038C57.6527 57.9038 58.1907 58.1386 58.5739 58.6092C58.9572 59.0799 59.1498 59.6642 59.1498 60.3622C59.1498 60.4896 59.1446 60.5875 59.133 60.657H55.7744C55.8323 61.0203 55.9786 61.3045 56.2155 61.5098C56.4524 61.7152 56.743 61.8173 57.0894 61.8173C57.54 61.8173 57.9517 61.6351 58.3276 61.2719L58.9424 61.8173C58.4686 62.3869 57.8454 62.6733 57.0726 62.6733ZM55.7649 59.9632H58.1107C58.0759 59.6115 57.958 59.3231 57.7559 59.0978C57.5537 58.8724 57.2852 58.7598 56.9504 58.7598C56.6335 58.7598 56.3672 58.8714 56.1545 59.0935C55.9407 59.3157 55.8112 59.6052 55.7649 59.9632Z" fill="#10B981"/>
<path d="M67.1315 62.5689V57.9984H68.1791V59.0281C68.5023 58.249 69.0414 57.8773 69.7984 57.911V59.0186H69.7373C69.2635 59.0186 68.8855 59.1734 68.6034 59.4819C68.3201 59.7904 68.1791 60.2389 68.1791 60.8285V62.5689H67.1315Z" fill="#10B981"/>
<path d="M78.5665 63.9799C78.1854 63.9799 77.8253 63.8872 77.4842 63.703L77.839 62.9239C78.0527 63.0397 78.257 63.0965 78.4539 63.0965C78.6034 63.0965 78.7276 63.0576 78.8266 62.9797C78.9245 62.9017 79.0171 62.7649 79.1035 62.568L77.1989 57.9976H78.3159L79.6141 61.3909L80.7996 57.9976H81.8903L80.0721 62.6985C79.8878 63.166 79.6825 63.4966 79.4572 63.6893C79.233 63.883 78.9361 63.9799 78.5665 63.9799Z" fill="#10B981"/>
</svg>
