<svg width="34" height="29" viewBox="0 0 34 29" fill="none" xmlns="http://www.w3.org/2000/svg">
<path d="M0.75 0V22.5H7V28.8672L9.03125 27.2266L14.9297 22.5H33.25V0H0.75ZM3.25 2.5H30.75V20H14.0703L13.7188 20.2734L9.5 23.6328V20H3.25V2.5ZM17 5C14.251 5 13.25 7.25098 13.25 8.75H15.75C15.75 8.125 15.999 7.5 17 7.5C18.001 7.5 18.25 8.125 18.25 8.75C18.25 9.375 17.6104 9.75586 17.2344 9.88281H17C16.248 10.1318 15.75 10.8838 15.75 11.7578V13.75H18.25V12.1094C19.5 11.6113 20.75 10.376 20.75 8.75C20.75 7.25098 19.749 5 17 5ZM15.75 15V17.5H18.25V15H15.75Z" fill="#10B981"/>
</svg>
