<svg width="56" height="56" viewBox="0 0 56 56" fill="none" xmlns="http://www.w3.org/2000/svg">
<rect width="56" height="56" rx="28" fill="#10B981"/>
<path d="M28 17C26.707 17 25.6055 17.8438 25.1875 19H18V21H19.4062L19.125 21.5L15.125 28.5L15 28.75V29C15 31.75 17.25 34 20 34C22.75 34 25 31.75 25 29V28.75L24.875 28.5L20.875 21.5L20.5938 21H25.1875C25.4922 21.8438 26.1562 22.5078 27 22.8125V36H23V38H33V36H29V22.8125C29.8398 22.5078 30.5078 21.8398 30.8125 21H35.4062L35.125 21.5L31.125 28.5L31 28.75V29C31 31.75 33.25 34 36 34C38.75 34 41 31.75 41 29V28.75L40.875 28.5L36.875 21.5L36.5938 21H38V19H30.8125C30.3945 17.8438 29.293 17 28 17ZM28 19C28.5625 19 29 19.4375 29 20C29 20.5625 28.5625 21 28 21C27.4375 21 27 20.5625 27 20C27 19.4375 27.4375 19 28 19ZM20 24.0312L22.2812 28H17.7188L20 24.0312ZM36 24.0312L38.2812 28H33.7188L36 24.0312ZM17.25 30H22.75C22.3477 31.1602 21.3047 32 20 32C18.6953 32 17.6523 31.1602 17.25 30ZM33.25 30H38.75C38.3477 31.1602 37.3047 32 36 32C34.6953 32 33.6523 31.1602 33.25 30Z" fill="white"/>
</svg>
