<svg width="56" height="56" viewBox="0 0 56 56" fill="none" xmlns="http://www.w3.org/2000/svg">
<rect width="56" height="56" rx="28" fill="#10B981"/>
<path d="M28 16C24.3129 16 21.2606 18.5384 20.3418 21.9473C17.7801 23.2816 16 25.9201 16 29C16 33.4064 19.5936 37 24 37H27V40H29V33.4141L33.707 28.707L32.293 27.293L29 30.5859V22H27V28.5859L23.707 25.293L22.293 26.707L27 31.4141V35H24C20.6744 35 18 32.3256 18 29C18 26.5536 19.4586 24.4657 21.5469 23.5273L22.0176 23.3164L22.1191 22.8125C22.6699 20.069 25.0823 18 28 18C30.9177 18 33.3301 20.069 33.8809 22.8125L33.9824 23.3164L34.4531 23.5273C36.5414 24.4657 38 26.5536 38 29C38 32.3256 35.3256 35 32 35H31V37H32C36.4064 37 40 33.4064 40 29C40 25.9201 38.2199 23.2816 35.6582 21.9473C34.7394 18.5384 31.6871 16 28 16Z" fill="white"/>
</svg>
